<?xml version="1.0" standalone="no"?>
<!DOCTYPE svg PUBLIC "-//W3C//DTD SVG 1.1//EN" "http://www.w3.org/Graphics/SVG/1.1/DTD/svg11.dtd" >
<svg>
<metadata>
Created by FontForge 20120731 at Sun Aug 25 00:19:15 2019
 By www
Copyright (c) 2010 by Colophon Foundry. All rights reserved.
</metadata>
<defs>
<font id="Raisonne-DemiBold" horiz-adv-x="594" >
  <font-face 
    font-family="Raisonne DemiBold"
    font-weight="600"
    font-stretch="normal"
    units-per-em="1000"
    panose-1="2 0 5 3 3 0 0 2 0 4"
    ascent="800"
    descent="-200"
    x-height="500"
    cap-height="700"
    bbox="-71 -262 1306 995"
    underline-thickness="50"
    underline-position="-50"
    unicode-range="U+000D-FB02"
  />
<missing-glyph horiz-adv-x="698" 
d="M28 410l50 29l163 -96l-82 142l58 34l150 -259l-50 -29l-156 84l76 -131l-59 -34zM316 404q-21 37 -21 78q0 40 19 75.5t55 56.5q35 20 73 20q41 0 77 -20.5t58 -58.5q21 -38 21 -78t-19 -75.5t-55 -56.5q-34 -19 -72 -19q-41 0 -77.5 20.5t-58.5 57.5zM375 438
q13 -21 33.5 -33t43.5 -12q21 0 38 10q20 12 30 31t10 41q0 25 -12 46q-13 21 -33.5 33t-43.5 12q-20 0 -39 -10q-20 -11 -29.5 -30t-9.5 -41q0 -25 12 -47zM188 121l464 268l29 -50l-464 -268z" />
    <glyph glyph-name="fi" unicode="fi" horiz-adv-x="673" 
d="M136 576q0 34 11 59t30 40.5t43.5 23t50.5 7.5q34 0 61 -11t47 -35l-74 -73q-4 6 -11 10.5t-18 4.5q-14 0 -22 -9t-8 -24v-69h133v-104h-133v-396h-110v396h-101v104h101v76zM486 500h110v-500h-110v500zM467 631q0 32 21.5 53.5t52.5 21.5t52.5 -21.5t21.5 -53.5
t-21.5 -53.5t-52.5 -21.5t-52.5 21.5t-21.5 53.5z" />
    <glyph glyph-name="fl" unicode="fl" horiz-adv-x="615" 
d="M136 576q0 34 11 59t30 40.5t43.5 23t50.5 7.5q34 0 61 -11t47 -35l-74 -73q-4 6 -11 10.5t-18 4.5q-14 0 -22 -9t-8 -24v-69h133v-104h-133v-396h-110v396h-101v104h101v76zM428 700l110 12v-712h-110v700z" />
    <glyph glyph-name=".notdef" horiz-adv-x="698" 
d="M28 410l50 29l163 -96l-82 142l58 34l150 -259l-50 -29l-156 84l76 -131l-59 -34zM316 404q-21 37 -21 78q0 40 19 75.5t55 56.5q35 20 73 20q41 0 77 -20.5t58 -58.5q21 -38 21 -78t-19 -75.5t-55 -56.5q-34 -19 -72 -19q-41 0 -77.5 20.5t-58.5 57.5zM375 438
q13 -21 33.5 -33t43.5 -12q21 0 38 10q20 12 30 31t10 41q0 25 -12 46q-13 21 -33.5 33t-43.5 12q-20 0 -39 -10q-20 -11 -29.5 -30t-9.5 -41q0 -25 12 -47zM188 121l464 268l29 -50l-464 -268z" />
    <glyph glyph-name=".null" horiz-adv-x="0" 
 />
    <glyph glyph-name=".null" horiz-adv-x="0" 
 />
    <glyph glyph-name="nonmarkingreturn" unicode="&#xd;" horiz-adv-x="0" 
 />
    <glyph glyph-name="space" unicode=" " horiz-adv-x="282" 
 />
    <glyph glyph-name="exclam" unicode="!" horiz-adv-x="296" 
d="M200 188h-112v512l112 12v-524zM218 69q0 -32 -21.5 -53.5t-52.5 -21.5t-52.5 21.5t-21.5 53.5q0 31 21.5 53t52.5 22t52.5 -22t21.5 -53z" />
    <glyph glyph-name="quotedbl" unicode="&#x22;" horiz-adv-x="418" 
d="M76 700l106 12v-225h-106v213zM236 700l106 12v-225h-106v213z" />
    <glyph glyph-name="numbersign" unicode="#" horiz-adv-x="822" 
d="M461 200h-100v-200h-100v200h-200v100h200v100h-200v100h200v200l100 12v-212h100v200l100 12v-212h200v-100h-200v-100h200v-100h-200v-200h-100v200zM361 300h100v100h-100v-100z" />
    <glyph glyph-name="dollar" unicode="$" horiz-adv-x="538" 
d="M188 526q0 -24 12 -39t33 -25.5t50 -19.5t64 -22q65 -25 104 -71.5t39 -126.5q0 -42 -13 -78.5t-36 -65.5t-55 -49t-69 -29v-100h-100v99q-39 8 -71.5 28t-56 49.5t-36.5 65.5t-13 77h112q0 -24 7.5 -46t22 -38t35.5 -25.5t48 -9.5q54 0 83.5 33t29.5 86q0 39 -16 61
t-42.5 35.5t-60.5 23t-71 23.5q-48 19 -79 59.5t-31 98.5q0 68 37 116.5t97 63.5v100h100v-100q76 -16 116 -84l-75 -75q-13 29 -37 44t-51 15q-35 0 -56 -21t-21 -53z" />
    <glyph glyph-name="percent" unicode="%" horiz-adv-x="952" 
d="M613 800l91 -39l-365 -861l-91 39zM48 525q0 39 13.5 72t37.5 57.5t57 38t73 13.5t73 -13.5t57 -38t37.5 -57.5t13.5 -72t-13.5 -72t-37.5 -57.5t-57 -38t-73 -13.5t-73 13.5t-57 38t-37.5 57.5t-13.5 72zM148 525q0 -38 23 -60.5t58 -22.5t58 22.5t23 60.5t-23 60.5
t-58 22.5t-58 -22.5t-23 -60.5zM542 175q0 39 13.5 72t37.5 57.5t57 38t73 13.5t73 -13.5t57 -38t37.5 -57.5t13.5 -72t-13.5 -72t-37.5 -57.5t-57 -38t-73 -13.5t-73 13.5t-57 38t-37.5 57.5t-13.5 72zM642 175q0 -38 23 -60.5t58 -22.5t58 22.5t23 60.5t-23 60.5t-58 22.5
t-58 -22.5t-23 -60.5z" />
    <glyph glyph-name="ampersand" unicode="&#x26;" horiz-adv-x="718" 
d="M497 219q0 -50 -18.5 -91.5t-49.5 -71t-73 -46t-88 -16.5q-48 0 -89 17.5t-72 48.5t-48.5 71.5t-17.5 87.5q0 58 29.5 106t74.5 75q-28 23 -45.5 54.5t-17.5 73.5q0 38 14 70.5t38.5 56.5t58.5 37.5t75 13.5q57 0 101 -30.5t66 -73.5l-74 -66q-16 28 -37.5 46t-55.5 18
q-37 0 -57.5 -22.5t-20.5 -55.5t22.5 -55.5t55.5 -22.5h38v-106h-38q-51 0 -83 -32.5t-32 -86.5q0 -25 8.5 -46.5t24 -37.5t36.5 -25.5t46 -9.5q52 0 84.5 32.5t32.5 86.5q0 42 -25 73v100h332v-100h-208q13 -37 13 -73z" />
    <glyph glyph-name="quotesingle" unicode="'" horiz-adv-x="258" 
d="M76 700l106 12v-225h-106v213z" />
    <glyph glyph-name="parenleft" unicode="(" horiz-adv-x="450" 
d="M173 350q0 -70 18.5 -132t52.5 -113.5t81 -92t103 -67.5l-53 -95q-69 33 -126.5 84t-99.5 115.5t-65 141t-23 159.5t23 159.5t65 141t99.5 115.5t126.5 84l53 -95q-56 -27 -103 -67.5t-81 -92.5t-52.5 -113.5t-18.5 -131.5z" />
    <glyph glyph-name="parenright" unicode=")" horiz-adv-x="450" 
d="M277 350q0 70 -19 131.5t-52.5 113.5t-80.5 92.5t-103 67.5l53 95q69 -33 126.5 -84t99.5 -115.5t65 -141t23 -159.5t-23 -159.5t-65 -141t-99.5 -115.5t-126.5 -84l-53 95q56 27 103 67.5t80.5 92t52.5 113.5t19 132z" />
    <glyph glyph-name="asterisk" unicode="*" horiz-adv-x="390" 
d="M229 490v-90h-68v90l-80 -45l-33 60l78 45l-78 45l33 60l80 -46v91l68 6v-97l80 46l33 -60l-78 -45l78 -45l-33 -60z" />
    <glyph glyph-name="plus" unicode="+" horiz-adv-x="573" 
d="M57 400h174v178h108v-178h174v-100h-174v-178h-108v178h-174v100z" />
    <glyph glyph-name="comma" unicode="," horiz-adv-x="276" 
d="M-4 -107l126 213h120l-154 -266z" />
    <glyph glyph-name="hyphen" unicode="-" horiz-adv-x="460" 
d="M57 380h343v-100h-343v100z" />
    <glyph glyph-name="period" unicode="." horiz-adv-x="292" 
d="M72 69q0 31 21.5 53t52.5 22t52.5 -22t21.5 -53t-21.5 -53t-52.5 -22t-52.5 22t-21.5 53z" />
    <glyph glyph-name="slash" unicode="/" horiz-adv-x="474" 
d="M375 800l91 -39l-365 -861l-91 39z" />
    <glyph glyph-name="zero" unicode="0" horiz-adv-x="808" 
d="M58 350q0 73 26.5 138t73 113.5t109.5 76.5t137 28t137 -28t109.5 -76.5t73 -113.5t26.5 -138q0 -74 -26.5 -138.5t-73 -113t-109.5 -76.5t-137 -28t-137 28t-109.5 76.5t-73 113t-26.5 138.5zM172 350q0 -35 7.5 -67.5t24.5 -61.5l333 333q-28 21 -60.5 33.5t-72.5 12.5
q-50 0 -92.5 -20t-73.5 -54t-48.5 -79.5t-17.5 -96.5zM636 350q0 71 -32 129l-334 -334q29 -21 61.5 -33t72.5 -12q50 0 92.5 20t73.5 54t48.5 79.5t17.5 96.5z" />
    <glyph glyph-name="one" unicode="1" horiz-adv-x="268" 
d="M78 700l112 12v-712h-112v700z" />
    <glyph glyph-name="two" unicode="2" horiz-adv-x="586" 
d="M65 130q0 88 42.5 140.5t112.5 79.5q30 12 62 21.5t58.5 24.5t43.5 37.5t17 60.5q0 48 -28 77t-82 29q-50 0 -82 -27.5t-49 -72.5l-78 73q26 59 80 96t126 37q54 0 96 -15.5t70.5 -43.5t43.5 -67t15 -85t-13.5 -81.5t-36.5 -62t-55.5 -45t-69.5 -30.5q-29 -9 -57.5 -20
t-51.5 -27.5t-37.5 -41.5t-14.5 -62v-19h336v-106h-448v130z" />
    <glyph glyph-name="three" unicode="3" horiz-adv-x="561" 
d="M109 601q23 43 67 74t100 31q85 0 135 -47t50 -128q0 -39 -16 -72t-43 -58q45 -28 73.5 -71.5t28.5 -110.5q0 -53 -17.5 -94.5t-48.5 -70.5t-72.5 -44.5t-89.5 -15.5q-50 0 -91 17.5t-71 48.5t-46.5 71.5t-16.5 87.5h108q0 -50 31 -84.5t86 -34.5q54 0 85 32t31 87
q0 57 -30 88t-81 31h-50v106h39q36 0 59.5 20.5t23.5 60.5q0 35 -22 55t-55 20q-34 0 -56 -19t-36 -47z" />
    <glyph glyph-name="four" unicode="4" horiz-adv-x="606" 
d="M171 712v-359h169v259h112v-259h94v-106h-94v-247h-112v247h-281v453z" />
    <glyph glyph-name="five" unicode="5" horiz-adv-x="552" 
d="M171 219q0 -53 33 -86t82 -33q51 0 81 32.5t30 86.5q0 53 -28 86t-81 33q-23 0 -43 -8t-34 -22h-108v392h364v-106h-256v-175q17 11 42 18t51 7q43 0 80.5 -15.5t65 -44.5t43.5 -70.5t16 -94.5q0 -49 -17 -90.5t-47 -71.5t-71 -46.5t-88 -16.5q-51 0 -92.5 18t-71.5 48.5
t-46.5 71.5t-16.5 87h112z" />
    <glyph glyph-name="six" unicode="6" horiz-adv-x="551" 
d="M57 219q0 32 9.5 62t23.5 56l192 363h114l-140 -264q6 2 19 4t21 2q43 0 81 -14.5t67 -43t46 -70t17 -95.5q0 -50 -17 -91t-47 -71t-71 -46.5t-90 -16.5t-90 16.5t-71 46.5t-47 71t-17 91zM169 219q0 -53 31.5 -86t81.5 -33t81.5 33t31.5 86t-31.5 85t-81.5 32t-81.5 -32
t-31.5 -85z" />
    <glyph glyph-name="seven" unicode="7" horiz-adv-x="510" 
d="M142 400h122l103 194h-332v106h455v-94l-108 -206h62v-100h-115l-157 -300h-119l158 300h-69v100z" />
    <glyph glyph-name="eight" unicode="8" horiz-adv-x="586" 
d="M108 522q0 39 13.5 72.5t38 58.5t58.5 39t75 14t75 -14t58.5 -39t38 -58.5t13.5 -72.5q0 -74 -55 -124q46 -31 71.5 -76.5t25.5 -102.5q0 -47 -17 -88t-47 -71.5t-72 -48t-91 -17.5q-50 0 -91.5 17.5t-71.5 48t-47 71.5t-17 88q0 57 25.5 102.5t71.5 76.5q-55 50 -55 124
zM178 219q0 -54 32 -86.5t83 -32.5t83 32.5t32 86.5t-32 86.5t-83 32.5t-83 -32.5t-32 -86.5zM216 522q0 -35 21 -56.5t56 -21.5t56 21.5t21 56.5t-21 56.5t-56 21.5t-56 -21.5t-21 -56.5z" />
    <glyph glyph-name="nine" unicode="9" horiz-adv-x="578" 
d="M500 0h-112v302q-22 -23 -54.5 -34.5t-68.5 -11.5q-49 0 -89.5 16.5t-70 46.5t-45.5 71t-16 91q0 49 16 90.5t45.5 71.5t70 46.5t89.5 16.5q42 0 72.5 -13t50.5 -34v41l112 12v-712zM388 481q0 26 -8.5 48.5t-24.5 38.5t-37.5 25t-46.5 9q-51 0 -83 -34t-32 -87t32 -87
t83 -34q25 0 46.5 9t37.5 25t24.5 38.5t8.5 48.5z" />
    <glyph glyph-name="colon" unicode=":" horiz-adv-x="292" 
d="M72 69q0 31 21.5 53t52.5 22t52.5 -22t21.5 -53t-21.5 -53t-52.5 -22t-52.5 22t-21.5 53zM72 350q0 31 21.5 53t52.5 22t52.5 -22t21.5 -53t-21.5 -53t-52.5 -22t-52.5 22t-21.5 53z" />
    <glyph glyph-name="semicolon" unicode=";" horiz-adv-x="292" 
d="M112 350q0 31 21.5 53t52.5 22t52.5 -22t21.5 -53t-21.5 -53t-52.5 -22t-52.5 22t-21.5 53zM-4 -107l126 213h120l-154 -266z" />
    <glyph glyph-name="less" unicode="&#x3c;" horiz-adv-x="394" 
d="M267 124l-226 226l226 226l71 -70l-158 -156l158 -156z" />
    <glyph glyph-name="equal" unicode="=" horiz-adv-x="572" 
d="M57 460h455v-100h-455v100zM57 300h455v-100h-455v100z" />
    <glyph glyph-name="greater" unicode="&#x3e;" horiz-adv-x="394" 
d="M56 194l158 156l-158 156l71 70l226 -226l-226 -226z" />
    <glyph glyph-name="question" unicode="?" horiz-adv-x="511" 
d="M282 69q0 31 -21.5 53t-52.5 22t-52.5 -22t-21.5 -53t21.5 -53t52.5 -22t52.5 22t21.5 53zM152 188q0 40 10.5 69t27 51t37.5 37.5t43 27.5q24 13 40.5 25t27.5 25.5t16 30t5 39.5q0 49 -31 78t-82 29q-48 0 -79.5 -28t-48.5 -72l-80 77q29 59 81.5 94t127.5 35
q51 0 92.5 -16t70.5 -44.5t44.5 -66.5t15.5 -83q0 -37 -7 -64.5t-19.5 -48.5t-29.5 -37t-38 -29q-24 -15 -44.5 -26t-35.5 -24.5t-23.5 -31.5t-8.5 -47h-112z" />
    <glyph glyph-name="at" unicode="@" horiz-adv-x="754" 
d="M524 354q0 -23 9.5 -41.5t32.5 -18.5q20 0 33 19t13 67q0 47 -13.5 88.5t-42 72.5t-72 49t-103.5 18q-53 0 -97 -21t-75.5 -56t-49 -82t-17.5 -99q0 -57 18 -104.5t50.5 -81.5t78.5 -53t102 -19q46 0 84 12.5t67 41.5h127q-42 -78 -113 -115t-169 -37q-77 0 -141 27
t-110.5 75t-72 113t-25.5 141q0 72 25.5 137t71 113.5t108.5 77t138 28.5q78 0 140 -24.5t105.5 -67.5t66.5 -101.5t23 -125.5q0 -46 -11.5 -81.5t-31.5 -60t-47 -37t-58 -12.5q-35 0 -58 12.5t-40 37.5q-19 -23 -42 -36.5t-64 -13.5q-32 0 -59.5 11.5t-48 32t-32.5 49
t-12 61.5t11 61.5t30.5 48.5t46 31.5t56.5 11.5q17 0 31 -3.5t23 -8.5q11 -5 18 -12v21h96v-146zM428 349q0 26 -17 43t-42 17t-41 -17t-16 -43t16 -43t41 -17t42 17t17 43z" />
    <glyph glyph-name="A" unicode="A" horiz-adv-x="650" 
d="M523 0l-42 115h-312l-42 -115h-117l259 700h112l259 -700h-117zM206 221h238l-119 329z" />
    <glyph glyph-name="B" unicode="B" horiz-adv-x="589" 
d="M498 519q0 -42 -20 -74t-45 -46q20 -10 39.5 -27t34.5 -39.5t24.5 -50.5t9.5 -60q0 -48 -17.5 -88.5t-48 -70.5t-71.5 -46.5t-87 -16.5h-233v700h228q43 0 77.5 -13t58.5 -37t37 -57.5t13 -73.5zM196 106h116q55 0 86 32t31 84t-31 84t-86 32h-116v-232zM196 444h116
q36 0 56 20t20 55t-20 55t-56 20h-116v-150z" />
    <glyph glyph-name="C" unicode="C" horiz-adv-x="780" 
d="M160 350q0 -53 17 -98.5t48 -79t73.5 -53t93.5 -19.5t93.5 19t73.5 52t48 79t17 100h114q0 -74 -26 -139t-72.5 -113t-110 -76t-137.5 -28t-137.5 28t-110 76t-72.5 113t-26 139t26 139t72.5 113t110 76t137.5 28q85 0 151.5 -35t114.5 -93l-78 -78q-32 46 -78 73
t-110 27q-51 0 -93.5 -19.5t-73.5 -53t-48 -79.5t-17 -98z" />
    <glyph glyph-name="D" unicode="D" horiz-adv-x="680" 
d="M289 700q75 0 138.5 -24.5t109 -69.5t71.5 -110t26 -146t-26 -146t-71.5 -110t-109 -69.5t-138.5 -24.5h-205v700h205zM196 594v-488h96q48 0 89.5 16t72 47t48.5 76.5t18 104.5t-18 104.5t-48.5 76.5t-72 47t-89.5 16h-96z" />
    <glyph glyph-name="E" unicode="E" horiz-adv-x="581" 
d="M84 700h439v-106h-327v-188h159v-106h-159v-194h333v-106h-445v700z" />
    <glyph glyph-name="F" unicode="F" horiz-adv-x="573" 
d="M84 700h445v-106h-333v-188h171v-106h-171v-300h-112v700z" />
    <glyph glyph-name="G" unicode="G" horiz-adv-x="781" 
d="M619 95q-42 -51 -101 -76t-126 -25q-74 0 -137.5 28t-110 76t-72.5 113t-26 139t26 139t72.5 113t110 76t137.5 28q85 0 151.5 -35t114.5 -93l-78 -78q-32 46 -78 73t-110 27q-51 0 -93.5 -19.5t-73.5 -53t-48 -79.5t-17 -98q0 -53 17 -98.5t48 -79t73.5 -53t93.5 -19.5
q92 0 151.5 54.5t75.5 145.5h-231v106h335v-406h-104v95z" />
    <glyph glyph-name="H" unicode="H" horiz-adv-x="629" 
d="M196 700v-294h237v294h112v-700h-112v300h-237v-300h-112v700h112z" />
    <glyph glyph-name="I" unicode="I" horiz-adv-x="422" 
d="M373 594h-106v-488h106v-106h-324v106h106v488h-106v106h324v-106z" />
    <glyph glyph-name="J" unicode="J" horiz-adv-x="540" 
d="M475 700v-463q0 -53 -15 -97.5t-44 -77t-71 -50.5t-95 -18q-48 0 -89.5 17t-71.5 47.5t-47 71.5t-17 89h112q0 -25 8 -46.5t22.5 -37.5t35.5 -25.5t47 -9.5q57 0 85 35.5t28 98.5v360h-76v106h188z" />
    <glyph glyph-name="K" unicode="K" horiz-adv-x="592" 
d="M196 456l170 244h132l-168 -236l254 -464h-131l-196 361l-61 -85v-276h-112v700h112v-244z" />
    <glyph glyph-name="L" unicode="L" horiz-adv-x="544" 
d="M84 700h112v-594h333v-106h-445v700z" />
    <glyph glyph-name="M" unicode="M" horiz-adv-x="860" 
d="M84 700h124l222 -540l222 540h124v-700h-112v444l-184 -444h-100l-184 444v-444h-112v700z" />
    <glyph glyph-name="N" unicode="N" horiz-adv-x="629" 
d="M84 700h124l225 -482v482h112v-700h-124l-225 482v-482h-112v700z" />
    <glyph glyph-name="O" unicode="O" horiz-adv-x="784" 
d="M738 350q0 -74 -26 -139t-72.5 -113t-110 -76t-137.5 -28t-137.5 28t-110 76t-72.5 113t-26 139t26 139t72.5 113t110 76t137.5 28t137.5 -28t110 -76t72.5 -113t26 -139zM624 350q0 52 -17 98t-48 79.5t-73.5 53t-93.5 19.5t-93.5 -19.5t-73.5 -53t-48 -79.5t-17 -98
q0 -53 17 -98.5t48 -79t73.5 -53t93.5 -19.5t93.5 19.5t73.5 53t48 79t17 98.5z" />
    <glyph glyph-name="P" unicode="P" horiz-adv-x="569" 
d="M84 700h233q48 0 88.5 -16t70.5 -45t46.5 -70t16.5 -91t-16.5 -91t-46.5 -70t-70.5 -45t-88.5 -16h-121v-256h-112v700zM196 362h121q53 0 83.5 32t30.5 84t-30.5 84t-83.5 32h-121v-232z" />
    <glyph glyph-name="Q" unicode="Q" horiz-adv-x="784" 
d="M572 45q-40 -25 -85 -38t-95 -13q-74 0 -137.5 28t-110 76t-72.5 113t-26 139t26 139t72.5 113t110 76t137.5 28t137.5 -28t110 -76t72.5 -113t26 -139q0 -67 -22 -127t-62 -108l51 -52l-75 -75zM160 350q0 -53 17 -98.5t48 -79t73.5 -53t93.5 -19.5q27 0 52.5 5.5
t49.5 18.5l-102 101l75 75l108 -107q49 67 49 157q0 52 -17 98t-48 79.5t-73.5 53t-93.5 19.5t-93.5 -19.5t-73.5 -53t-48 -79.5t-17 -98z" />
    <glyph glyph-name="R" unicode="R" horiz-adv-x="526" 
d="M289 700q42 0 78.5 -13.5t63.5 -39t43 -62.5t16 -85q0 -42 -13 -75.5t-34.5 -58t-50.5 -40.5t-61 -22l159 -304h-128l-150 300h-16v-300h-112v700h205zM196 406h94q45 0 67.5 26.5t22.5 67.5t-22.5 67.5t-67.5 26.5h-94v-188z" />
    <glyph glyph-name="S" unicode="S" horiz-adv-x="538" 
d="M188 526q0 -24 12 -39t33 -25.5t50 -19.5t64 -22q65 -25 104 -71.5t39 -126.5q0 -49 -17.5 -90.5t-48 -72t-71.5 -48t-88 -17.5q-48 0 -89 17.5t-71.5 48.5t-47.5 71.5t-17 87.5h112q0 -24 7.5 -46t22 -38t35.5 -25.5t48 -9.5q54 0 83.5 33t29.5 86q0 39 -16 61
t-42.5 35.5t-60.5 23t-71 23.5q-48 19 -79 59.5t-31 98.5q0 41 14 75t39 59t58.5 38.5t72.5 13.5q57 0 98.5 -23t67.5 -67l-75 -75q-13 29 -37 44t-51 15q-35 0 -56 -21t-21 -53z" />
    <glyph glyph-name="T" unicode="T" horiz-adv-x="462" 
d="M16 700h430v-106h-159v-594h-112v594h-159v106z" />
    <glyph glyph-name="U" unicode="U" horiz-adv-x="586" 
d="M521 700v-475q0 -51 -17 -93.5t-47.5 -73t-72.5 -47.5t-91 -17t-91 17t-72.5 47.5t-47.5 73t-17 93.5v475h112v-481q0 -54 31 -86.5t85 -32.5t85 32.5t31 86.5v481h112z" />
    <glyph glyph-name="V" unicode="V" horiz-adv-x="648" 
d="M8 700h118l198 -547l198 547h118l-260 -700h-112z" />
    <glyph glyph-name="W" unicode="W" horiz-adv-x="900" 
d="M379 700l71 -213l71 213h112l-128 -372l61 -178l198 550h118l-260 -700h-112l-60 173l-60 -173h-112l-260 700h118l198 -550l61 178l-128 372h112z" />
    <glyph glyph-name="X" unicode="X" horiz-adv-x="600" 
d="M94 700h126l80 -157l80 157h126l-147 -272l232 -428h-126l-165 314l-165 -314h-126l232 428z" />
    <glyph glyph-name="Y" unicode="Y" horiz-adv-x="504" 
d="M123 700l129 -286l129 286h118l-191 -400v-300h-112v300l-191 400h118z" />
    <glyph glyph-name="Z" unicode="Z" horiz-adv-x="623" 
d="M126 400h130l141 194h-323v106h461v-94l-149 -206h54v-100h-127l-140 -194h407v-106h-545v94l149 206h-58v100z" />
    <glyph glyph-name="bracketleft" unicode="[" horiz-adv-x="319" 
d="M184 -6h106v-94h-206v900h206v-94h-106v-712z" />
    <glyph glyph-name="backslash" unicode="\" horiz-adv-x="474" 
d="M464 -61l-91 -39l-365 861l91 39z" />
    <glyph glyph-name="bracketright" unicode="]" horiz-adv-x="319" 
d="M135 706h-106v94h206v-900h-206v94h106v712z" />
    <glyph glyph-name="asciicircum" unicode="^" 
d="M17 471l280 279l280 -279l-70 -71l-210 211l-210 -211z" />
    <glyph glyph-name="underscore" unicode="_" horiz-adv-x="598" 
d="M25 -6h548v-100h-548v100z" />
    <glyph glyph-name="grave" unicode="`" horiz-adv-x="334" 
d="M266 564l-241 65l27 97l241 -65z" />
    <glyph glyph-name="a" unicode="a" horiz-adv-x="624" 
d="M547 500v-500h-112v52q-16 -20 -54.5 -39t-88.5 -19q-54 0 -99.5 19t-79.5 53t-53 81t-19 103t19 103t53 81t79.5 53t99.5 19q25 0 47.5 -5.5t41 -13.5t32.5 -18.5t22 -20.5v52h112zM439 250q0 31 -11 58t-30 47.5t-45.5 32.5t-56.5 12q-31 0 -58 -12t-46.5 -32.5
t-31 -47.5t-11.5 -58t11.5 -58t31 -47.5t46.5 -32.5t58 -12q30 0 56.5 12t45.5 32.5t30 47.5t11 58z" />
    <glyph glyph-name="b" unicode="b" horiz-adv-x="623" 
d="M77 0v700l110 12v-264q23 26 61.5 42t85.5 16q56 0 101.5 -18t78 -51.5t50.5 -81t18 -105.5q0 -59 -18 -106t-50.5 -80.5t-78 -51.5t-101.5 -18q-50 0 -86.5 17.5t-60.5 40.5v-52h-110zM185 250q0 -32 10.5 -59.5t29 -47.5t45 -31.5t59.5 -11.5t59.5 11.5t45.5 31.5
t29.5 47.5t10.5 59.5t-10.5 59.5t-29.5 47.5t-45.5 31.5t-59.5 11.5t-59.5 -11.5t-45 -31.5t-29 -47.5t-10.5 -59.5z" />
    <glyph glyph-name="c" unicode="c" horiz-adv-x="591" 
d="M153 250q0 -68 39.5 -110t104.5 -42q32 0 58.5 11t46 31t30 48t10.5 62h110q0 -55 -19.5 -101.5t-53.5 -81t-81 -54t-101 -19.5q-55 0 -102 19.5t-81 53.5t-53.5 81t-19.5 102t19.5 102t53.5 81t81 53.5t102 19.5q59 0 103.5 -20.5t79.5 -55.5l-81 -73q-19 20 -44 32.5
t-58 12.5q-65 0 -104.5 -42t-39.5 -110z" />
    <glyph glyph-name="d" unicode="d" horiz-adv-x="623" 
d="M436 0v52q-24 -23 -60.5 -40.5t-86.5 -17.5q-56 0 -101.5 18t-78 51.5t-50.5 80.5t-18 106q0 58 18 105.5t50.5 81t78 51.5t101.5 18q47 0 85.5 -16t61.5 -42v252l110 12v-712h-110zM438 250q0 32 -10.5 59.5t-29 47.5t-45 31.5t-59.5 11.5t-59.5 -11.5t-45.5 -31.5
t-29.5 -47.5t-10.5 -59.5t10.5 -59.5t29.5 -47.5t45.5 -31.5t59.5 -11.5t59.5 11.5t45 31.5t29 47.5t10.5 59.5z" />
    <glyph glyph-name="e" unicode="e" horiz-adv-x="591" 
d="M157 212q4 -24 16.5 -44.5t31.5 -36t42.5 -24.5t50.5 -9q38 0 67.5 12t45.5 36h131q-13 -34 -36.5 -62t-55.5 -48t-71 -31t-81 -11q-54 0 -101 20t-81.5 54.5t-54.5 81.5t-20 100t19.5 100t54 81.5t81 54.5t99.5 20t99.5 -20t81 -54.5t54 -81.5t19.5 -100q0 -20 -3 -38
h-389zM295 404q-24 0 -45.5 -7.5t-39 -20t-30 -30t-18.5 -36.5h266q-6 19 -18.5 36.5t-30 30t-39 20t-45.5 7.5z" />
    <glyph glyph-name="f" unicode="f" horiz-adv-x="414" 
d="M136 576q0 34 11 59t30 40.5t43.5 23t50.5 7.5q34 0 61 -11t47 -35l-74 -73q-4 6 -11 10.5t-18 4.5q-14 0 -22 -9t-8 -24v-69h160v-104h-160v-396h-110v396h-101v104h101v76z" />
    <glyph glyph-name="g" unicode="g" horiz-adv-x="536" 
d="M56 303q0 42 15 79t41.5 64.5t63.5 43.5t81 16q29 0 55.5 -7t46.5 -22v23h110v-197q0 -44 -17 -81.5t-50 -64.5q45 -32 70 -79t25 -103q0 -53 -18 -95.5t-49.5 -72.5t-74.5 -46.5t-92 -16.5q-46 0 -85.5 14t-69.5 39t-50 60.5t-27 77.5h114q11 -37 39 -62t79 -25
q56 0 89 35t33 92t-33 91.5t-89 34.5q-36 0 -65.5 -18.5t-43.5 -47.5l-80 79q9 12 20.5 23t28.5 20q-32 28 -49.5 65t-17.5 81zM166 303q0 -45 27.5 -71.5t69.5 -26.5t69 26.5t27 71.5t-27 72t-69 27t-69.5 -27t-27.5 -72z" />
    <glyph glyph-name="h" unicode="h" horiz-adv-x="590" 
d="M77 700l110 12v-269q23 27 58.5 45t84.5 18q90 0 141 -53t51 -153v-300h-110v276q0 59 -26 92.5t-83 33.5q-54 0 -85 -35.5t-31 -90.5v-276h-110v700z" />
    <glyph glyph-name="i" unicode="i" horiz-adv-x="264" 
d="M77 500h110v-500h-110v500zM58 631q0 32 21.5 53.5t52.5 21.5t52.5 -21.5t21.5 -53.5t-21.5 -53.5t-52.5 -21.5t-52.5 21.5t-21.5 53.5z" />
    <glyph glyph-name="j" unicode="j" horiz-adv-x="264" 
d="M77 500h110v-750l-110 -12v762zM58 631q0 32 21.5 53.5t52.5 21.5t52.5 -21.5t21.5 -53.5t-21.5 -53.5t-52.5 -21.5t-52.5 21.5t-21.5 53.5z" />
    <glyph glyph-name="k" unicode="k" horiz-adv-x="537" 
d="M301 500h126l-105 -150l208 -350h-125l-151 255l-67 -97v-158h-110v700l110 12v-381z" />
    <glyph glyph-name="l" unicode="l" horiz-adv-x="264" 
d="M77 700l110 12v-712h-110v700z" />
    <glyph glyph-name="m" unicode="m" horiz-adv-x="831" 
d="M77 500h110v-57q20 28 54 45.5t76 17.5q46 0 78.5 -18t52.5 -51q29 30 63 49.5t88 19.5q77 0 120.5 -42.5t43.5 -135.5v-328h-110v300q0 49 -22 75.5t-67 26.5q-38 0 -63.5 -26.5t-25.5 -75.5v-300h-110v300q0 49 -22.5 75.5t-66.5 26.5q-38 0 -63.5 -26.5t-25.5 -75.5
v-300h-110v500z" />
    <glyph glyph-name="n" unicode="n" horiz-adv-x="584" 
d="M77 500h110v-57q17 23 51 43t86 20q94 0 143 -53t49 -153v-300h-110v276q0 66 -27.5 96t-81.5 30t-82 -35t-28 -91v-276h-110v500z" />
    <glyph glyph-name="o" unicode="o" 
d="M41 250q0 55 19 101.5t53.5 81t81 54t102.5 19.5q55 0 102 -19.5t81.5 -54t53.5 -81t19 -101.5t-19 -101.5t-53.5 -81t-81.5 -54t-102 -19.5q-56 0 -102.5 19.5t-81 54t-53.5 81t-19 101.5zM153 250q0 -33 10.5 -60.5t29.5 -47.5t45.5 -31t58.5 -11t58.5 11t45.5 31
t29.5 47.5t10.5 60.5t-10.5 60.5t-29.5 47.5t-45.5 31t-58.5 11t-58.5 -11t-45.5 -31t-29.5 -47.5t-10.5 -60.5z" />
    <glyph glyph-name="p" unicode="p" horiz-adv-x="623" 
d="M187 500v-52q24 23 60.5 40.5t86.5 17.5q56 0 101.5 -18t78 -51.5t50.5 -81t18 -105.5q0 -59 -18 -106t-50.5 -80.5t-78 -51.5t-101.5 -18q-47 0 -85.5 16t-61.5 42v-302l-110 -12v762h110zM185 250q0 -32 10.5 -59.5t29 -47.5t45 -31.5t59.5 -11.5t59.5 11.5t45.5 31.5
t29.5 47.5t10.5 59.5t-10.5 59.5t-29.5 47.5t-45.5 31.5t-59.5 11.5t-59.5 -11.5t-45 -31.5t-29 -47.5t-10.5 -59.5z" />
    <glyph glyph-name="q" unicode="q" horiz-adv-x="623" 
d="M546 500v-750l-110 -12v314q-23 -26 -61.5 -42t-85.5 -16q-56 0 -101.5 18t-78 51.5t-50.5 80.5t-18 106q0 58 18 105.5t50.5 81t78 51.5t101.5 18q50 0 86.5 -17.5t60.5 -40.5v52h110zM438 250q0 32 -10.5 59.5t-29 47.5t-45 31.5t-59.5 11.5t-59.5 -11.5t-45.5 -31.5
t-29.5 -47.5t-10.5 -59.5t10.5 -59.5t29.5 -47.5t45.5 -31.5t59.5 -11.5t59.5 11.5t45 31.5t29 47.5t10.5 59.5z" />
    <glyph glyph-name="r" unicode="r" horiz-adv-x="345" 
d="M77 500h110v-52q18 24 47 41t82 17v-106h-10q-53 0 -86 -34t-33 -90v-276h-110v500z" />
    <glyph glyph-name="s" unicode="s" horiz-adv-x="421" 
d="M143 165q0 -32 20.5 -49.5t45.5 -17.5q29 0 46.5 16t17.5 46q0 21 -8.5 33t-22 19.5t-31.5 12t-36 9.5q-19 5 -37.5 15.5t-33.5 26.5t-24 39t-9 53t11 55.5t29.5 43.5t43.5 28.5t54 10.5q39 0 68.5 -16.5t50.5 -47.5l-68 -67q-6 15 -17.5 24t-26.5 9q-20 0 -30 -12.5
t-10 -27.5q0 -17 9.5 -26t25 -14.5t35.5 -10.5t40 -12q19 -7 36.5 -18.5t31 -28.5t21.5 -40.5t8 -55.5q0 -38 -13 -68.5t-36 -53t-55 -34.5t-70 -12q-39 0 -70.5 13.5t-54 36.5t-34.5 54t-12 67h105z" />
    <glyph glyph-name="t" unicode="t" horiz-adv-x="411" 
d="M120 700l110 12v-212h150v-104h-150v-396h-110v396h-101v104h101v200z" />
    <glyph glyph-name="u" unicode="u" horiz-adv-x="584" 
d="M507 0h-110v57q-17 -23 -51 -43t-86 -20q-94 0 -143 53t-49 153v300h110v-276q0 -66 27.5 -96t81.5 -30t82 35t28 91v276h110v-500z" />
    <glyph glyph-name="v" unicode="v" horiz-adv-x="486" 
d="M123 500l120 -344l120 344h118l-184 -500h-108l-184 500h118z" />
    <glyph glyph-name="w" unicode="w" horiz-adv-x="738" 
d="M336 500l33 -104l33 104h108l-87 -231l43 -128l132 359h112l-197 -500h-100l-44 131l-44 -131h-100l-197 500h112l132 -359l43 128l-87 231h108z" />
    <glyph glyph-name="x" unicode="x" horiz-adv-x="510" 
d="M255 196l-120 -196h-128l187 296l-130 204h128l63 -104l63 104h128l-130 -204l187 -296h-128z" />
    <glyph glyph-name="y" unicode="y" horiz-adv-x="489" 
d="M120 500l124 -291l124 291h114l-183 -412v-338l-110 -12v350l-183 412h114z" />
    <glyph glyph-name="z" unicode="z" horiz-adv-x="537" 
d="M58 500h419v-94l-290 -302h308v-104h-455v94l290 302h-272v104z" />
    <glyph glyph-name="braceleft" unicode="{" horiz-adv-x="320" 
d="M185 106q0 -47 27.5 -79.5t78.5 -32.5v-94q-45 0 -83 14.5t-65.5 41t-42.5 64.5t-15 86v139q0 58 -54 58v94q54 0 54 58v139q0 48 15 86t42 64.5t65 41t84 14.5v-94q-51 0 -78.5 -32.5t-27.5 -79.5v-144q0 -40 -12 -61.5t-34 -38.5q22 -17 34 -38.5t12 -61.5v-144z" />
    <glyph glyph-name="bar" unicode="|" horiz-adv-x="268" 
d="M84 800h100v-900h-100v900z" />
    <glyph glyph-name="braceright" unicode="}" horiz-adv-x="320" 
d="M135 250q0 40 12 61.5t34 38.5q-22 17 -34 38.5t-12 61.5v144q0 47 -27.5 79.5t-78.5 32.5v94q46 0 84 -14.5t65 -41t42 -64.5t15 -86v-139q0 -58 54 -58v-94q-54 0 -54 -58v-139q0 -48 -15 -86t-42.5 -64.5t-65.5 -41t-83 -14.5v94q51 0 78.5 32.5t27.5 79.5v144z" />
    <glyph glyph-name="asciitilde" unicode="~" horiz-adv-x="555" 
d="M505 406q0 -53 -32.5 -82.5t-87.5 -29.5q-17 0 -46 4.5t-60 9.5t-58 9.5t-40 4.5q-12 0 -20 -5.5t-8 -16.5h-103q0 53 32.5 82.5t87.5 29.5q17 0 46 -4.5t60 -9.5t58 -9.5t40 -4.5q12 0 20 5.5t8 16.5h103z" />
    <glyph glyph-name="uni00A0" unicode="&#xa0;" horiz-adv-x="282" 
 />
    <glyph glyph-name="exclamdown" unicode="&#xa1;" horiz-adv-x="296" 
d="M96 262h112v-512h-112v512zM78 381q0 31 21.5 53t52.5 22t52.5 -22t21.5 -53t-21.5 -53t-52.5 -22t-52.5 22t-21.5 53z" />
    <glyph glyph-name="cent" unicode="&#xa2;" horiz-adv-x="591" 
d="M153 250q0 -68 39.5 -110t104.5 -42q32 0 58.5 11t46 31t30 48t10.5 62h110q0 -48 -15.5 -90.5t-42.5 -75.5t-64.5 -55t-82.5 -30v-99h-100v99q-45 8 -83 30t-65.5 55t-42.5 75t-15 91t15 91t42.5 75t65.5 55t83 30v99h100v-99q41 -7 73.5 -25.5t59.5 -45.5l-81 -73
q-19 20 -44 32.5t-58 12.5q-65 0 -104.5 -42t-39.5 -110z" />
    <glyph glyph-name="sterling" unicode="&#xa3;" horiz-adv-x="582" 
d="M133 522q0 38 13.5 71.5t38 58.5t58 39.5t74.5 14.5q63 0 103.5 -30t63.5 -74l-76 -68q-14 28 -36 47t-55 19q-38 0 -57 -22t-19 -60v-118h157v-100h-157v-134q0 -26 -3.5 -41t-11.5 -25h169q26 0 40 13t14 41h100q0 -32 -10 -60t-29.5 -49t-47 -33t-61.5 -12h-323v100
q24 2 39.5 17.5t15.5 39.5v143h-94v100h94v122z" />
    <glyph glyph-name="currency" unicode="&#xa4;" horiz-adv-x="674" 
d="M630 137l-78 -78l-87 87q-53 -36 -128 -36t-128 36l-87 -87l-78 78l86 87q-16 28 -25.5 60t-9.5 68q0 37 9.5 68.5t25.5 59.5l-86 87l78 78l87 -87q26 17 59 26.5t69 9.5t69 -9.5t59 -26.5l87 87l78 -78l-86 -87q16 -28 25.5 -59.5t9.5 -68.5q0 -36 -9.5 -68t-25.5 -60z
M467 352q0 29 -9.5 54t-26.5 43t-41 28.5t-53 10.5t-53 -10.5t-41 -28.5t-26.5 -43t-9.5 -54t9.5 -54t26.5 -43t41 -28.5t53 -10.5t53 10.5t41 28.5t26.5 43t9.5 54z" />
    <glyph glyph-name="yen" unicode="&#xa5;" horiz-adv-x="488" 
d="M21 280h166v20l-8 20h-158v100h113l-128 280h118l120 -279l120 279h118l-128 -280h113v-100h-158l-8 -20v-20h166v-100h-167v-180h-112v180h-167v100z" />
    <glyph glyph-name="brokenbar" unicode="&#xa6;" horiz-adv-x="268" 
d="M84 294h100v-394h-100v394zM184 406h-100v394h100v-394z" />
    <glyph glyph-name="section" unicode="&#xa7;" horiz-adv-x="538" 
d="M191 526q0 -24 12 -39t33 -25.5t50 -19.5t64 -22q64 -23 101 -70.5t37 -127.5q0 -39 -10.5 -71t-22.5 -52q17 -24 26 -54t9 -67q0 -54 -17 -97t-47 -73.5t-71 -47t-90 -16.5t-90.5 18.5t-71.5 50.5t-46.5 73.5t-16.5 88.5h112q0 -25 7 -47.5t21.5 -40t35.5 -27.5t49 -10
q54 0 83.5 34t29.5 91q0 39 -15.5 61.5t-41 36t-59.5 23t-71 23.5q-48 18 -79 58.5t-31 98.5q0 38 14 69.5t39 53.5q-23 20 -39 52.5t-16 72.5q0 41 14.5 74.5t40 57.5t59.5 37t72 13q56 0 98 -23t68 -67l-75 -75q-13 29 -35.5 44t-49.5 15q-34 0 -57 -20.5t-23 -53.5z
M191 282q0 -24 12 -39t33 -25.5t50 -19.5t64 -22q3 -2 6 -2.5t6 -2.5t6 -3q5 12 8.5 25.5t3.5 27.5q0 49 -25.5 72t-65.5 37q-14 5 -29.5 10t-29.5 9q-17 -9 -28 -26.5t-11 -40.5z" />
    <glyph glyph-name="dieresis" unicode="&#xa8;" horiz-adv-x="411" 
d="M16 651q0 32 21.5 53.5t52.5 21.5t52.5 -21.5t21.5 -53.5t-21.5 -53.5t-52.5 -21.5t-52.5 21.5t-21.5 53.5zM247 651q0 32 21.5 53.5t52.5 21.5t52.5 -21.5t21.5 -53.5t-21.5 -53.5t-52.5 -21.5t-52.5 21.5t-21.5 53.5z" />
    <glyph glyph-name="copyright" unicode="&#xa9;" horiz-adv-x="780" 
d="M242 350q0 -35 9.5 -65t28.5 -52t47 -34.5t65 -12.5q28 0 53 10t44.5 27.5t32.5 41.5t18 52h75q-6 -42 -25 -78.5t-48.5 -64t-68 -43t-81.5 -15.5q-50 0 -91 18t-71 49.5t-46.5 74.5t-16.5 92t16.5 92t46.5 74.5t71 49.5t91 18q59 0 100 -23.5t71 -61.5l-51 -52
q-20 30 -51 48.5t-69 18.5q-37 0 -65 -12.5t-47 -34.5t-28.5 -52t-9.5 -65zM44 350q0 74 26 139t72.5 113t109.5 76t138 28t138 -28t109.5 -76t72.5 -113t26 -139t-26 -139t-72.5 -113t-109.5 -76t-138 -28t-138 28t-109.5 76t-72.5 113t-26 139zM119 350q0 -60 20.5 -112
t57 -90.5t86 -61t107.5 -22.5t107.5 22.5t86 61t57 90.5t20.5 112t-20.5 112t-57 90.5t-86 61t-107.5 22.5t-107.5 -22.5t-86 -61t-57 -90.5t-20.5 -112z" />
    <glyph glyph-name="ordfeminine" unicode="&#xaa;" horiz-adv-x="399" 
d="M348 700v-300h-67v31q-12 -14 -33.5 -24.5t-52.5 -10.5q-33 0 -61 11.5t-48 32t-31 48.5t-11 62t11 62.5t31 49.5t48 32.5t61 11.5q32 0 54.5 -12.5t31.5 -24.5v31h67zM282 550q0 38 -23.5 65t-61.5 27q-39 0 -63.5 -27.5t-24.5 -64.5t24.5 -63.5t63.5 -26.5
q38 0 61.5 26.5t23.5 63.5zM62 358h286v-58h-286v58z" />
    <glyph glyph-name="guillemotleft" unicode="&#xab;" horiz-adv-x="606" 
d="M288 50l-249 250l249 250l71 -70l-180 -180l180 -180zM504 50l-249 250l249 250l71 -70l-180 -180l180 -180z" />
    <glyph glyph-name="logicalnot" unicode="&#xac;" horiz-adv-x="574" 
d="M57 300h457v-200h-104v100h-353v100z" />
    <glyph glyph-name="registered" unicode="&#xae;" horiz-adv-x="780" 
d="M44 350q0 74 26 139t72.5 113t109.5 76t138 28t138 -28t109.5 -76t72.5 -113t26 -139t-26 -139t-72.5 -113t-109.5 -76t-138 -28t-138 28t-109.5 76t-72.5 113t-26 139zM119 350q0 -60 20.5 -112t57 -90.5t86 -61t107.5 -22.5t107.5 22.5t86 61t57 90.5t20.5 112
t-20.5 112t-57 90.5t-86 61t-107.5 22.5t-107.5 -22.5t-86 -61t-57 -90.5t-20.5 -112zM405 569q25 0 48 -9t40.5 -25.5t28 -40.5t10.5 -54q0 -53 -30 -85.5t-71 -40.5l101 -186h-81l-95 183h-6v-183h-75v441h130zM350 381h49q29 0 43.5 16.5t14.5 42.5t-14.5 42.5
t-43.5 16.5h-49v-118z" />
    <glyph glyph-name="macron" unicode="&#xaf;" horiz-adv-x="397" 
d="M41 850h315v-100h-315v100z" />
    <glyph glyph-name="degree" unicode="&#xb0;" horiz-adv-x="366" 
d="M58 581q0 26 9.5 49t26.5 40t39.5 26.5t49.5 9.5t49.5 -9.5t39.5 -26.5t26.5 -40t9.5 -49t-9.5 -49t-26.5 -40t-39.5 -26.5t-49.5 -9.5t-49.5 9.5t-39.5 26.5t-26.5 40t-9.5 49zM140 581q0 -18 12 -30.5t31 -12.5t31 12.5t12 30.5t-12 30.5t-31 12.5t-31 -12.5t-12 -30.5
z" />
    <glyph glyph-name="plusminus" unicode="&#xb1;" horiz-adv-x="572" 
d="M57 426h175v178h105v-178h175v-100h-175v-178h-105v178h-175v100zM57 100h455v-100h-455v100z" />
    <glyph glyph-name="twosuperior" unicode="&#xb2;" horiz-adv-x="320" 
d="M54 459q0 41 17 65t45 36q13 6 24.5 9.5t20.5 8t14.5 11t5.5 18.5q0 13 -9 22.5t-25 9.5q-15 0 -25.5 -10t-15.5 -24l-46 45q14 26 38 41t53 15q22 0 40 -8t31 -21.5t20 -30.5t7 -35q0 -40 -20.5 -62t-55.5 -33q-24 -8 -37.5 -16.5t-13.5 -28.5v-5h127v-66h-195v59z" />
    <glyph glyph-name="threesuperior" unicode="&#xb3;" horiz-adv-x="325" 
d="M89 670q11 16 31 26t41 10q40 0 61.5 -21.5t21.5 -58.5q0 -15 -6.5 -30t-16.5 -24q17 -10 29.5 -28t12.5 -46q0 -51 -30.5 -77.5t-74.5 -26.5q-50 0 -76 30.5t-28 75.5h67q1 -18 11.5 -29t25.5 -11q18 0 27.5 11.5t9.5 26.5q0 17 -10 27.5t-27 10.5h-18v62h16
q10 0 15 6.5t5 14.5q0 9 -5.5 15t-14.5 6q-15 0 -22 -14z" />
    <glyph glyph-name="acute" unicode="&#xb4;" horiz-adv-x="334" 
d="M41 661l241 65l27 -97l-241 -65z" />
    <glyph glyph-name="mu" unicode="&#xb5;" horiz-adv-x="593" 
d="M77 500h110v-276q0 -66 27.5 -96t81.5 -30t82 35t28 91v276h110v-500h-110v57q-17 -23 -51 -43t-86 -20q-45 0 -82 13v-257l-110 -12v762z" />
    <glyph glyph-name="paragraph" unicode="&#xb6;" horiz-adv-x="687" 
d="M278 256q-48 0 -89 16.5t-71.5 46t-48 70.5t-17.5 89t17.5 89t48 70.5t71.5 46t89 16.5h350v-106h-76v-844l-112 -12v518h-50v-506l-112 -12v518zM164 478q0 -53 33 -84.5t81 -31.5v232q-48 0 -81 -31.5t-33 -84.5zM440 594h-50v-232h50v232z" />
    <glyph glyph-name="periodcentered" unicode="&#xb7;" horiz-adv-x="292" 
d="M72 350q0 31 21.5 53t52.5 22t52.5 -22t21.5 -53t-21.5 -53t-52.5 -22t-52.5 22t-21.5 53z" />
    <glyph glyph-name="cedilla" unicode="&#xb8;" horiz-adv-x="246" 
d="M92 -143q0 -14 8.5 -22.5t22.5 -8.5q13 0 21.5 8.5t8.5 22.5q0 16 -9 26.5t-28 10.5h-75l63 106h80l-23 -40q29 -6 52 -31t23 -72q0 -23 -9 -43.5t-24.5 -36t-36 -24.5t-43.5 -9t-43.5 9t-36 24.5t-24.5 36t-9 43.5h82z" />
    <glyph glyph-name="onesuperior" unicode="&#xb9;" horiz-adv-x="177" 
d="M50 700l68 6v-306h-68v300z" />
    <glyph glyph-name="ordmasculine" unicode="&#xba;" horiz-adv-x="396" 
d="M64 358h272v-58h-272v58zM44 552q0 33 11.5 61t32 49t49 32.5t61.5 11.5t61.5 -11.5t49 -32.5t32 -49t11.5 -61t-11.5 -61t-32 -48.5t-49 -32.5t-61.5 -12t-61.5 12t-49 32.5t-32 48.5t-11.5 61zM111 552q0 -39 24 -64.5t63 -25.5q38 0 62 25.5t24 64.5q0 40 -24 65.5
t-62 25.5q-39 0 -63 -25.5t-24 -65.5z" />
    <glyph glyph-name="guillemotright" unicode="&#xbb;" horiz-adv-x="606" 
d="M247 120l180 180l-180 180l71 70l249 -250l-249 -250zM31 120l180 180l-180 180l71 70l249 -250l-249 -250z" />
    <glyph glyph-name="onequarter" unicode="&#xbc;" horiz-adv-x="853" 
d="M613 306v-139h55v95h68v-95h30v-66h-30v-101h-68v101h-123v199zM731 706l48 -48l-664 -664l-48 48zM188 700l68 6v-306h-68v300z" />
    <glyph glyph-name="onehalf" unicode="&#xbd;" horiz-adv-x="853" 
d="M731 706l48 -48l-664 -664l-48 48zM526 59q0 41 17 65t45 36q13 6 24.5 9.5t20.5 8t14.5 11t5.5 18.5q0 13 -9 22.5t-25 9.5q-15 0 -25.5 -10t-15.5 -24l-46 45q14 26 38 41t53 15q22 0 40 -8t31 -21.5t20 -30.5t7 -35q0 -40 -20.5 -62t-55.5 -33q-24 -8 -37.5 -16.5
t-13.5 -28.5v-5h127v-66h-195v59zM188 700l68 6v-306h-68v300z" />
    <glyph glyph-name="threequarters" unicode="&#xbe;" horiz-adv-x="853" 
d="M613 306v-139h55v95h68v-95h30v-66h-30v-101h-68v101h-123v199zM731 706l48 -48l-664 -664l-48 48zM156 670q11 16 31 26t41 10q40 0 61.5 -21.5t21.5 -58.5q0 -15 -6.5 -30t-16.5 -24q17 -10 29.5 -28t12.5 -46q0 -51 -30.5 -77.5t-74.5 -26.5q-50 0 -76 30.5t-28 75.5
h67q1 -18 11.5 -29t25.5 -11q18 0 27.5 11.5t9.5 26.5q0 17 -10 27.5t-27 10.5h-18v62h16q10 0 15 6.5t5 14.5q0 9 -5.5 15t-14.5 6q-15 0 -22 -14z" />
    <glyph glyph-name="questiondown" unicode="&#xbf;" horiz-adv-x="511" 
d="M229 381q0 32 21.5 53.5t52.5 21.5t52.5 -21.5t21.5 -53.5t-21.5 -53.5t-52.5 -21.5t-52.5 21.5t-21.5 53.5zM359 262q0 -40 -10.5 -69.5t-27 -51t-37.5 -37t-43 -27.5q-24 -13 -40.5 -25t-27.5 -25.5t-16 -30.5t-5 -39q0 -49 31 -78t82 -29q49 0 82 32t33 87h112
q0 -51 -18 -92.5t-49.5 -71t-73 -45.5t-87.5 -16q-52 0 -93 16t-70 44.5t-44.5 66.5t-15.5 83q0 37 7 64.5t19.5 48.5t29.5 37t38 29q24 15 44.5 26t35.5 24.5t23.5 31.5t8.5 47h112z" />
    <glyph glyph-name="Agrave" unicode="&#xc0;" horiz-adv-x="650" 
d="M523 0l-42 115h-312l-42 -115h-117l259 700h112l259 -700h-117zM206 221h238l-119 329zM427 770l-241 65l27 97l241 -65z" />
    <glyph glyph-name="Aacute" unicode="&#xc1;" horiz-adv-x="650" 
d="M523 0l-42 115h-312l-42 -115h-117l259 700h112l259 -700h-117zM206 221h238l-119 329zM182 867l241 65l27 -97l-241 -65z" />
    <glyph glyph-name="Acircumflex" unicode="&#xc2;" horiz-adv-x="650" 
d="M523 0l-42 115h-312l-42 -115h-117l259 700h112l259 -700h-117zM206 221h238l-119 329zM142 802l183 183l183 -183l-66 -67l-117 117l-117 -117z" />
    <glyph glyph-name="Atilde" unicode="&#xc3;" horiz-adv-x="650" 
d="M523 0l-42 115h-312l-42 -115h-117l259 700h112l259 -700h-117zM206 221h238l-119 329zM517 876q-8 -52 -40.5 -81.5t-88.5 -29.5q-21 0 -37.5 5.5t-30.5 12t-26 12t-24 5.5q-29 0 -37 -26h-100q8 52 40.5 81.5t88.5 29.5q21 0 37.5 -5.5t30.5 -12t26 -12t24 -5.5
q29 0 37 26h100z" />
    <glyph glyph-name="Adieresis" unicode="&#xc4;" horiz-adv-x="650" 
d="M523 0l-42 115h-312l-42 -115h-117l259 700h112l259 -700h-117zM206 221h238l-119 329zM136 845q0 32 21.5 53.5t52.5 21.5t52.5 -21.5t21.5 -53.5t-21.5 -53.5t-52.5 -21.5t-52.5 21.5t-21.5 53.5zM367 845q0 32 21.5 53.5t52.5 21.5t52.5 -21.5t21.5 -53.5t-21.5 -53.5
t-52.5 -21.5t-52.5 21.5t-21.5 53.5z" />
    <glyph glyph-name="Aring" unicode="&#xc5;" horiz-adv-x="650" 
d="M523 0l-42 115h-312l-42 -115h-117l259 700h112l259 -700h-117zM206 221h238l-119 329zM225 850q0 21 7.5 39t21 31.5t32 21.5t39.5 8t39.5 -8t32 -21.5t21 -31.5t7.5 -39t-7.5 -39t-21 -31.5t-32 -21.5t-39.5 -8t-39.5 8t-32 21.5t-21 31.5t-7.5 39zM297 850
q0 -12 8 -20t20 -8t20 8t8 20t-8 20t-20 8t-20 -8t-8 -20z" />
    <glyph glyph-name="AE" unicode="&#xc6;" horiz-adv-x="822" 
d="M325 115h-156l-42 -115h-117l259 700h501v-106h-333v-188h165v-106h-165v-194h339v-106h-451v115zM206 221h119v329z" />
    <glyph glyph-name="Ccedilla" unicode="&#xc7;" horiz-adv-x="780" 
d="M346 -143q0 -14 8.5 -22.5t22.5 -8.5q13 0 21.5 8.5t8.5 22.5q0 16 -9 26.5t-28 10.5h-75l60 102q-67 7 -123.5 37t-98 77.5t-64.5 109t-23 130.5q0 74 26 139t72.5 113t110 76t137.5 28q85 0 151.5 -35t114.5 -93l-78 -78q-32 46 -78 73t-110 27q-51 0 -93.5 -19.5
t-73.5 -53t-48 -79.5t-17 -98q0 -53 17 -98.5t48 -79t73.5 -53t93.5 -19.5t93.5 19t73.5 52t48 79t17 100h114q0 -68 -22.5 -129t-63 -108t-95.5 -77.5t-121 -38.5l-21 -37q29 -6 52 -31t23 -72q0 -23 -9 -43.5t-24.5 -36t-36 -24.5t-43.5 -9t-43.5 9t-36 24.5t-24.5 36
t-9 43.5h82z" />
    <glyph glyph-name="Egrave" unicode="&#xc8;" horiz-adv-x="581" 
d="M84 700h439v-106h-327v-188h159v-106h-159v-194h333v-106h-445v700zM423 770l-241 65l27 97l241 -65z" />
    <glyph glyph-name="Eacute" unicode="&#xc9;" horiz-adv-x="581" 
d="M84 700h439v-106h-327v-188h159v-106h-159v-194h333v-106h-445v700zM185 867l241 65l27 -97l-241 -65z" />
    <glyph glyph-name="Ecircumflex" unicode="&#xca;" horiz-adv-x="581" 
d="M84 700h439v-106h-327v-188h159v-106h-159v-194h333v-106h-445v700zM118 812l183 183l183 -183l-66 -67l-117 117l-117 -117z" />
    <glyph glyph-name="Edieresis" unicode="&#xcb;" horiz-adv-x="581" 
d="M84 700h439v-106h-327v-188h159v-106h-159v-194h333v-106h-445v700zM117 845q0 32 21.5 53.5t52.5 21.5t52.5 -21.5t21.5 -53.5t-21.5 -53.5t-52.5 -21.5t-52.5 21.5t-21.5 53.5zM348 845q0 32 21.5 53.5t52.5 21.5t52.5 -21.5t21.5 -53.5t-21.5 -53.5t-52.5 -21.5
t-52.5 21.5t-21.5 53.5z" />
    <glyph glyph-name="Igrave" unicode="&#xcc;" horiz-adv-x="422" 
d="M373 594h-106v-488h106v-106h-324v106h106v488h-106v106h324v-106zM319 770l-241 65l27 97l241 -65z" />
    <glyph glyph-name="Iacute" unicode="&#xcd;" horiz-adv-x="422" 
d="M373 594h-106v-488h106v-106h-324v106h106v488h-106v106h324v-106zM69 867l241 65l27 -97l-241 -65z" />
    <glyph glyph-name="Icircumflex" unicode="&#xce;" horiz-adv-x="422" 
d="M373 594h-106v-488h106v-106h-324v106h106v488h-106v106h324v-106zM29 812l183 183l183 -183l-66 -67l-117 117l-117 -117z" />
    <glyph glyph-name="Idieresis" unicode="&#xcf;" horiz-adv-x="422" 
d="M373 594h-106v-488h106v-106h-324v106h106v488h-106v106h324v-106zM21 845q0 32 21.5 53.5t52.5 21.5t52.5 -21.5t21.5 -53.5t-21.5 -53.5t-52.5 -21.5t-52.5 21.5t-21.5 53.5zM252 845q0 32 21.5 53.5t52.5 21.5t52.5 -21.5t21.5 -53.5t-21.5 -53.5t-52.5 -21.5
t-52.5 21.5t-21.5 53.5z" />
    <glyph glyph-name="Eth" unicode="&#xd0;" horiz-adv-x="733" 
d="M342 700q75 0 138.5 -24.5t109 -69.5t71.5 -110t26 -146t-26 -146t-71.5 -110t-109 -69.5t-138.5 -24.5h-205v300h-115v106h115v294h205zM249 594v-188h115v-106h-115v-194h96q48 0 89.5 16t72 47t48.5 76.5t18 104.5t-18 104.5t-48.5 76.5t-72 47t-89.5 16h-96z" />
    <glyph glyph-name="Ntilde" unicode="&#xd1;" horiz-adv-x="629" 
d="M84 700h124l225 -482v482h112v-700h-124l-225 482v-482h-112v700zM506 876q-8 -52 -40.5 -81.5t-88.5 -29.5q-21 0 -37.5 5.5t-30.5 12t-26 12t-24 5.5q-29 0 -37 -26h-100q8 52 40.5 81.5t88.5 29.5q21 0 37.5 -5.5t30.5 -12t26 -12t24 -5.5q29 0 37 26h100z" />
    <glyph glyph-name="Ograve" unicode="&#xd2;" horiz-adv-x="784" 
d="M738 350q0 -74 -26 -139t-72.5 -113t-110 -76t-137.5 -28t-137.5 28t-110 76t-72.5 113t-26 139t26 139t72.5 113t110 76t137.5 28t137.5 -28t110 -76t72.5 -113t26 -139zM624 350q0 52 -17 98t-48 79.5t-73.5 53t-93.5 19.5t-93.5 -19.5t-73.5 -53t-48 -79.5t-17 -98
q0 -53 17 -98.5t48 -79t73.5 -53t93.5 -19.5t93.5 19.5t73.5 53t48 79t17 98.5zM501 764l-241 65l27 97l241 -65z" />
    <glyph glyph-name="Oacute" unicode="&#xd3;" horiz-adv-x="784" 
d="M738 350q0 -74 -26 -139t-72.5 -113t-110 -76t-137.5 -28t-137.5 28t-110 76t-72.5 113t-26 139t26 139t72.5 113t110 76t137.5 28t137.5 -28t110 -76t72.5 -113t26 -139zM624 350q0 52 -17 98t-48 79.5t-73.5 53t-93.5 19.5t-93.5 -19.5t-73.5 -53t-48 -79.5t-17 -98
q0 -53 17 -98.5t48 -79t73.5 -53t93.5 -19.5t93.5 19.5t73.5 53t48 79t17 98.5zM243 867l241 65l27 -97l-241 -65z" />
    <glyph glyph-name="Ocircumflex" unicode="&#xd4;" horiz-adv-x="784" 
d="M738 350q0 -74 -26 -139t-72.5 -113t-110 -76t-137.5 -28t-137.5 28t-110 76t-72.5 113t-26 139t26 139t72.5 113t110 76t137.5 28t137.5 -28t110 -76t72.5 -113t26 -139zM624 350q0 52 -17 98t-48 79.5t-73.5 53t-93.5 19.5t-93.5 -19.5t-73.5 -53t-48 -79.5t-17 -98
q0 -53 17 -98.5t48 -79t73.5 -53t93.5 -19.5t93.5 19.5t73.5 53t48 79t17 98.5zM209 807l183 183l183 -183l-66 -67l-117 117l-117 -117z" />
    <glyph glyph-name="Otilde" unicode="&#xd5;" horiz-adv-x="784" 
d="M738 350q0 -74 -26 -139t-72.5 -113t-110 -76t-137.5 -28t-137.5 28t-110 76t-72.5 113t-26 139t26 139t72.5 113t110 76t137.5 28t137.5 -28t110 -76t72.5 -113t26 -139zM624 350q0 52 -17 98t-48 79.5t-73.5 53t-93.5 19.5t-93.5 -19.5t-73.5 -53t-48 -79.5t-17 -98
q0 -53 17 -98.5t48 -79t73.5 -53t93.5 -19.5t93.5 19.5t73.5 53t48 79t17 98.5zM584 876q-8 -52 -40.5 -81.5t-88.5 -29.5q-21 0 -37.5 5.5t-30.5 12t-26 12t-24 5.5q-29 0 -37 -26h-100q8 52 40.5 81.5t88.5 29.5q21 0 37.5 -5.5t30.5 -12t26 -12t24 -5.5q29 0 37 26h100z
" />
    <glyph glyph-name="Odieresis" unicode="&#xd6;" horiz-adv-x="784" 
d="M738 350q0 -74 -26 -139t-72.5 -113t-110 -76t-137.5 -28t-137.5 28t-110 76t-72.5 113t-26 139t26 139t72.5 113t110 76t137.5 28t137.5 -28t110 -76t72.5 -113t26 -139zM624 350q0 52 -17 98t-48 79.5t-73.5 53t-93.5 19.5t-93.5 -19.5t-73.5 -53t-48 -79.5t-17 -98
q0 -53 17 -98.5t48 -79t73.5 -53t93.5 -19.5t93.5 19.5t73.5 53t48 79t17 98.5zM203 845q0 32 21.5 53.5t52.5 21.5t52.5 -21.5t21.5 -53.5t-21.5 -53.5t-52.5 -21.5t-52.5 21.5t-21.5 53.5zM434 845q0 32 21.5 53.5t52.5 21.5t52.5 -21.5t21.5 -53.5t-21.5 -53.5
t-52.5 -21.5t-52.5 21.5t-21.5 53.5z" />
    <glyph glyph-name="multiply" unicode="&#xd7;" horiz-adv-x="676" 
d="M129 560l209 -209l209 209l71 -70l-210 -210l210 -210l-71 -70l-209 209l-209 -209l-71 70l210 210l-210 210z" />
    <glyph glyph-name="Oslash" unicode="&#xd8;" horiz-adv-x="784" 
d="M738 350q0 -74 -26 -139t-72.5 -113t-110 -76t-137.5 -28q-49 0 -92 12l-22 -51l-91 39l22 51q-75 48 -119 128t-44 177q0 74 26 139t72.5 113t110 76t137.5 28q48 0 92 -12l22 51l91 -39l-22 -51q75 -48 119 -128t44 -177zM392 600q-51 0 -93.5 -19.5t-73.5 -53
t-48 -79.5t-17 -98q0 -64 24 -116.5t68 -86.5l190 448q-12 3 -24 4t-26 1zM624 350q0 63 -24 116t-68 87l-190 -448q12 -3 24 -4t26 -1q51 0 93.5 19.5t73.5 53t48 79t17 98.5z" />
    <glyph glyph-name="Ugrave" unicode="&#xd9;" horiz-adv-x="586" 
d="M521 700v-475q0 -51 -17 -93.5t-47.5 -73t-72.5 -47.5t-91 -17t-91 17t-72.5 47.5t-47.5 73t-17 93.5v475h112v-481q0 -54 31 -86.5t85 -32.5t85 32.5t31 86.5v481h112zM406 770l-241 65l27 97l241 -65z" />
    <glyph glyph-name="Uacute" unicode="&#xda;" horiz-adv-x="586" 
d="M521 700v-475q0 -51 -17 -93.5t-47.5 -73t-72.5 -47.5t-91 -17t-91 17t-72.5 47.5t-47.5 73t-17 93.5v475h112v-481q0 -54 31 -86.5t85 -32.5t85 32.5t31 86.5v481h112zM153 867l241 65l27 -97l-241 -65z" />
    <glyph glyph-name="Ucircumflex" unicode="&#xdb;" horiz-adv-x="586" 
d="M521 700v-475q0 -51 -17 -93.5t-47.5 -73t-72.5 -47.5t-91 -17t-91 17t-72.5 47.5t-47.5 73t-17 93.5v475h112v-481q0 -54 31 -86.5t85 -32.5t85 32.5t31 86.5v481h112zM110 812l183 183l183 -183l-66 -67l-117 117l-117 -117z" />
    <glyph glyph-name="Udieresis" unicode="&#xdc;" horiz-adv-x="586" 
d="M521 700v-475q0 -51 -17 -93.5t-47.5 -73t-72.5 -47.5t-91 -17t-91 17t-72.5 47.5t-47.5 73t-17 93.5v475h112v-481q0 -54 31 -86.5t85 -32.5t85 32.5t31 86.5v481h112zM104 845q0 32 21.5 53.5t52.5 21.5t52.5 -21.5t21.5 -53.5t-21.5 -53.5t-52.5 -21.5t-52.5 21.5
t-21.5 53.5zM335 845q0 32 21.5 53.5t52.5 21.5t52.5 -21.5t21.5 -53.5t-21.5 -53.5t-52.5 -21.5t-52.5 21.5t-21.5 53.5z" />
    <glyph glyph-name="Yacute" unicode="&#xdd;" horiz-adv-x="504" 
d="M123 700l129 -286l129 286h118l-191 -400v-300h-112v300l-191 400h118zM114 867l241 65l27 -97l-241 -65z" />
    <glyph glyph-name="Thorn" unicode="&#xde;" horiz-adv-x="573" 
d="M84 700h112v-128h121q50 0 91.5 -15.5t71.5 -44t46.5 -70t16.5 -92.5t-16.5 -92.5t-46.5 -70t-71.5 -44t-91.5 -15.5h-121v-128h-112v700zM196 234h116q57 0 88 31t31 85t-31 85t-88 31h-116v-232z" />
    <glyph glyph-name="germandbls" unicode="&#xdf;" horiz-adv-x="532" 
d="M77 522q0 38 14 71.5t39 58.5t59.5 39.5t75.5 14.5q45 0 79.5 -13.5t58.5 -38t36 -58.5t12 -74q0 -42 -15.5 -71t-40.5 -52q42 -26 69 -71.5t27 -105.5q0 -54 -16.5 -95.5t-46.5 -69.5t-71.5 -42.5t-91.5 -14.5h-44v104h37q57 0 91 32.5t34 85.5t-34 85t-91 32h-37v104
h44q33 0 55.5 20.5t22.5 58.5q0 39 -22.5 59.5t-55.5 20.5t-55.5 -22t-22.5 -58v-772l-110 -12v784z" />
    <glyph glyph-name="agrave" unicode="&#xe0;" horiz-adv-x="624" 
d="M547 500v-500h-112v52q-16 -20 -54.5 -39t-88.5 -19q-54 0 -99.5 19t-79.5 53t-53 81t-19 103t19 103t53 81t79.5 53t99.5 19q25 0 47.5 -5.5t41 -13.5t32.5 -18.5t22 -20.5v52h112zM439 250q0 31 -11 58t-30 47.5t-45.5 32.5t-56.5 12q-31 0 -58 -12t-46.5 -32.5
t-31 -47.5t-11.5 -58t11.5 -58t31 -47.5t46.5 -32.5t58 -12q30 0 56.5 12t45.5 32.5t30 47.5t11 58zM430 564l-241 65l27 97l241 -65z" />
    <glyph glyph-name="aacute" unicode="&#xe1;" horiz-adv-x="624" 
d="M547 500v-500h-112v52q-16 -20 -54.5 -39t-88.5 -19q-54 0 -99.5 19t-79.5 53t-53 81t-19 103t19 103t53 81t79.5 53t99.5 19q25 0 47.5 -5.5t41 -13.5t32.5 -18.5t22 -20.5v52h112zM439 250q0 31 -11 58t-30 47.5t-45.5 32.5t-56.5 12q-31 0 -58 -12t-46.5 -32.5
t-31 -47.5t-11.5 -58t11.5 -58t31 -47.5t46.5 -32.5t58 -12q30 0 56.5 12t45.5 32.5t30 47.5t11 58zM176 662l241 65l27 -97l-241 -65z" />
    <glyph glyph-name="acircumflex" unicode="&#xe2;" horiz-adv-x="624" 
d="M547 500v-500h-112v52q-16 -20 -54.5 -39t-88.5 -19q-54 0 -99.5 19t-79.5 53t-53 81t-19 103t19 103t53 81t79.5 53t99.5 19q25 0 47.5 -5.5t41 -13.5t32.5 -18.5t22 -20.5v52h112zM439 250q0 31 -11 58t-30 47.5t-45.5 32.5t-56.5 12q-31 0 -58 -12t-46.5 -32.5
t-31 -47.5t-11.5 -58t11.5 -58t31 -47.5t46.5 -32.5t58 -12q30 0 56.5 12t45.5 32.5t30 47.5t11 58zM151 602l183 183l183 -183l-66 -67l-117 117l-117 -117z" />
    <glyph glyph-name="atilde" unicode="&#xe3;" horiz-adv-x="624" 
d="M547 500v-500h-112v52q-16 -20 -54.5 -39t-88.5 -19q-54 0 -99.5 19t-79.5 53t-53 81t-19 103t19 103t53 81t79.5 53t99.5 19q25 0 47.5 -5.5t41 -13.5t32.5 -18.5t22 -20.5v52h112zM439 250q0 31 -11 58t-30 47.5t-45.5 32.5t-56.5 12q-31 0 -58 -12t-46.5 -32.5
t-31 -47.5t-11.5 -58t11.5 -58t31 -47.5t46.5 -32.5t58 -12q30 0 56.5 12t45.5 32.5t30 47.5t11 58zM501 676q-8 -52 -40.5 -81.5t-88.5 -29.5q-21 0 -37.5 5.5t-30.5 12t-26 12t-24 5.5q-29 0 -37 -26h-100q8 52 40.5 81.5t88.5 29.5q21 0 37.5 -5.5t30.5 -12t26 -12
t24 -5.5q29 0 37 26h100z" />
    <glyph glyph-name="adieresis" unicode="&#xe4;" horiz-adv-x="624" 
d="M547 500v-500h-112v52q-16 -20 -54.5 -39t-88.5 -19q-54 0 -99.5 19t-79.5 53t-53 81t-19 103t19 103t53 81t79.5 53t99.5 19q25 0 47.5 -5.5t41 -13.5t32.5 -18.5t22 -20.5v52h112zM439 250q0 31 -11 58t-30 47.5t-45.5 32.5t-56.5 12q-31 0 -58 -12t-46.5 -32.5
t-31 -47.5t-11.5 -58t11.5 -58t31 -47.5t46.5 -32.5t58 -12q30 0 56.5 12t45.5 32.5t30 47.5t11 58zM127 651q0 32 21.5 53.5t52.5 21.5t52.5 -21.5t21.5 -53.5t-21.5 -53.5t-52.5 -21.5t-52.5 21.5t-21.5 53.5zM358 651q0 32 21.5 53.5t52.5 21.5t52.5 -21.5t21.5 -53.5
t-21.5 -53.5t-52.5 -21.5t-52.5 21.5t-21.5 53.5z" />
    <glyph glyph-name="aring" unicode="&#xe5;" horiz-adv-x="624" 
d="M547 500v-500h-112v52q-16 -20 -54.5 -39t-88.5 -19q-54 0 -99.5 19t-79.5 53t-53 81t-19 103t19 103t53 81t79.5 53t99.5 19q25 0 47.5 -5.5t41 -13.5t32.5 -18.5t22 -20.5v52h112zM439 250q0 31 -11 58t-30 47.5t-45.5 32.5t-56.5 12q-31 0 -58 -12t-46.5 -32.5
t-31 -47.5t-11.5 -58t11.5 -58t31 -47.5t46.5 -32.5t58 -12q30 0 56.5 12t45.5 32.5t30 47.5t11 58zM196 650q0 21 7.5 39t21 31.5t32 21.5t39.5 8t39.5 -8t32 -21.5t21 -31.5t7.5 -39t-7.5 -39t-21 -31.5t-32 -21.5t-39.5 -8t-39.5 8t-32 21.5t-21 31.5t-7.5 39zM268 650
q0 -12 8 -20t20 -8t20 8t8 20t-8 20t-20 8t-20 -8t-8 -20z" />
    <glyph glyph-name="ae" unicode="&#xe6;" horiz-adv-x="853" 
d="M40 166q0 39 13.5 71.5t37.5 55.5t56 36t70 13q33 0 53.5 -9t34.5 -23v26q0 66 -67 66q-23 0 -39.5 -13t-27.5 -30l-71 71q23 35 60 55.5t83 20.5q50 0 85.5 -17t56.5 -48q34 30 78 47.5t96 17.5q45 0 83.5 -13t70 -36.5t54 -55.5t35.5 -70l-338 -195q19 -17 43 -27.5
t52 -10.5q63 0 98.5 34.5t44.5 93.5h112q-5 -53 -27 -95.5t-55.5 -73t-78 -47t-94.5 -16.5q-82 0 -144 42v-36h-110v31q-31 -37 -92 -37q-36 0 -67.5 12t-55 34.5t-37 54.5t-13.5 71zM415 250v-13t2 -12l238 137q-18 20 -43 30t-53 10q-33 0 -59.5 -12t-45.5 -33t-29 -48.5
t-10 -58.5zM150 169q0 -35 23 -55t57 -20t57 20t23 55t-23 55t-57 20t-57 -20t-23 -55z" />
    <glyph glyph-name="ccedilla" unicode="&#xe7;" horiz-adv-x="591" 
d="M266 -143q0 -14 8.5 -22.5t22.5 -8.5q13 0 21.5 8.5t8.5 22.5q0 16 -9 26.5t-28 10.5h-75l60 101q-51 4 -94 24.5t-74 54t-48.5 78.5t-17.5 98q0 55 19.5 102t53.5 81t81 53.5t102 19.5q59 0 103.5 -20.5t79.5 -55.5l-81 -73q-19 20 -44 32.5t-58 12.5q-65 0 -104.5 -42
t-39.5 -110t39.5 -110t104.5 -42q32 0 58.5 11t46 31t30 48t10.5 62h110q0 -47 -14.5 -88t-40 -73.5t-61 -55t-77.5 -32.5l-24 -41q29 -6 52 -31t23 -72q0 -23 -9 -43.5t-24.5 -36t-36 -24.5t-43.5 -9t-43.5 9t-36 24.5t-24.5 36t-9 43.5h82z" />
    <glyph glyph-name="egrave" unicode="&#xe8;" horiz-adv-x="591" 
d="M157 212q4 -24 16.5 -44.5t31.5 -36t42.5 -24.5t50.5 -9q38 0 67.5 12t45.5 36h131q-13 -34 -36.5 -62t-55.5 -48t-71 -31t-81 -11q-54 0 -101 20t-81.5 54.5t-54.5 81.5t-20 100t19.5 100t54 81.5t81 54.5t99.5 20t99.5 -20t81 -54.5t54 -81.5t19.5 -100q0 -20 -3 -38
h-389zM295 404q-24 0 -45.5 -7.5t-39 -20t-30 -30t-18.5 -36.5h266q-6 19 -18.5 36.5t-30 30t-39 20t-45.5 7.5zM403 564l-241 65l27 97l241 -65z" />
    <glyph glyph-name="eacute" unicode="&#xe9;" horiz-adv-x="591" 
d="M157 212q4 -24 16.5 -44.5t31.5 -36t42.5 -24.5t50.5 -9q38 0 67.5 12t45.5 36h131q-13 -34 -36.5 -62t-55.5 -48t-71 -31t-81 -11q-54 0 -101 20t-81.5 54.5t-54.5 81.5t-20 100t19.5 100t54 81.5t81 54.5t99.5 20t99.5 -20t81 -54.5t54 -81.5t19.5 -100q0 -20 -3 -38
h-389zM295 404q-24 0 -45.5 -7.5t-39 -20t-30 -30t-18.5 -36.5h266q-6 19 -18.5 36.5t-30 30t-39 20t-45.5 7.5zM142 661l241 65l27 -97l-241 -65z" />
    <glyph glyph-name="ecircumflex" unicode="&#xea;" horiz-adv-x="591" 
d="M157 212q4 -24 16.5 -44.5t31.5 -36t42.5 -24.5t50.5 -9q38 0 67.5 12t45.5 36h131q-13 -34 -36.5 -62t-55.5 -48t-71 -31t-81 -11q-54 0 -101 20t-81.5 54.5t-54.5 81.5t-20 100t19.5 100t54 81.5t81 54.5t99.5 20t99.5 -20t81 -54.5t54 -81.5t19.5 -100q0 -20 -3 -38
h-389zM295 404q-24 0 -45.5 -7.5t-39 -20t-30 -30t-18.5 -36.5h266q-6 19 -18.5 36.5t-30 30t-39 20t-45.5 7.5zM113 602l183 183l183 -183l-66 -67l-117 117l-117 -117z" />
    <glyph glyph-name="edieresis" unicode="&#xeb;" horiz-adv-x="591" 
d="M157 212q4 -24 16.5 -44.5t31.5 -36t42.5 -24.5t50.5 -9q38 0 67.5 12t45.5 36h131q-13 -34 -36.5 -62t-55.5 -48t-71 -31t-81 -11q-54 0 -101 20t-81.5 54.5t-54.5 81.5t-20 100t19.5 100t54 81.5t81 54.5t99.5 20t99.5 -20t81 -54.5t54 -81.5t19.5 -100q0 -20 -3 -38
h-389zM295 404q-24 0 -45.5 -7.5t-39 -20t-30 -30t-18.5 -36.5h266q-6 19 -18.5 36.5t-30 30t-39 20t-45.5 7.5zM108 651q0 32 21.5 53.5t52.5 21.5t52.5 -21.5t21.5 -53.5t-21.5 -53.5t-52.5 -21.5t-52.5 21.5t-21.5 53.5zM339 651q0 32 21.5 53.5t52.5 21.5t52.5 -21.5
t21.5 -53.5t-21.5 -53.5t-52.5 -21.5t-52.5 21.5t-21.5 53.5z" />
    <glyph glyph-name="igrave" unicode="&#xec;" horiz-adv-x="264" 
d="M77 0h110v500h-110v-500zM239 564l-241 65l27 97l241 -65z" />
    <glyph glyph-name="iacute" unicode="&#xed;" horiz-adv-x="264" 
d="M77 500h110v-500h-110v500zM-2 659l241 65l27 -97l-241 -65z" />
    <glyph glyph-name="icircumflex" unicode="&#xee;" horiz-adv-x="264" 
d="M77 500h110v-500h-110v500zM-51 602l183 183l183 -183l-66 -67l-117 117l-117 -117z" />
    <glyph glyph-name="idieresis" unicode="&#xef;" horiz-adv-x="264" 
d="M77 500h110v-500h-110v500zM-57 651l74 75l74 -75l-74 -75zM173 651l74 75l74 -75l-74 -75z" />
    <glyph glyph-name="eth" unicode="&#xf0;" 
d="M226 615l42 23l-58 112h112l9 -18q5 -8 10.5 -19.5t13.5 -25.5l40 22l45 -83l-40 -22l103 -194q7 -15 16 -33t16.5 -38.5t12.5 -43t5 -45.5q0 -56 -20 -102.5t-54.5 -81t-81.5 -53.5t-100 -19t-100 19t-81.5 53.5t-54.5 81t-20 102.5q0 53 19.5 100t54 81.5t80 54.5
t98.5 20q11 0 24 -1t23 -3l-28 52l-41 -22zM151 250q0 -68 40.5 -110t105.5 -42t105.5 42t40.5 110t-40.5 110t-105.5 42t-105.5 -42t-40.5 -110z" />
    <glyph glyph-name="ntilde" unicode="&#xf1;" horiz-adv-x="584" 
d="M77 500h110v-57q17 23 51 43t86 20q94 0 143 -53t49 -153v-300h-110v276q0 66 -27.5 96t-81.5 30t-82 -35t-28 -91v-276h-110v500zM484 676q-8 -52 -40.5 -81.5t-88.5 -29.5q-21 0 -37.5 5.5t-30.5 12t-26 12t-24 5.5q-29 0 -37 -26h-100q8 52 40.5 81.5t88.5 29.5
q21 0 37.5 -5.5t30.5 -12t26 -12t24 -5.5q29 0 37 26h100z" />
    <glyph glyph-name="ograve" unicode="&#xf2;" 
d="M41 250q0 55 19 101.5t53.5 81t81 54t102.5 19.5q55 0 102 -19.5t81.5 -54t53.5 -81t19 -101.5t-19 -101.5t-53.5 -81t-81.5 -54t-102 -19.5q-56 0 -102.5 19.5t-81 54t-53.5 81t-19 101.5zM153 250q0 -33 10.5 -60.5t29.5 -47.5t45.5 -31t58.5 -11t58.5 11t45.5 31
t29.5 47.5t10.5 60.5t-10.5 60.5t-29.5 47.5t-45.5 31t-58.5 11t-58.5 -11t-45.5 -31t-29.5 -47.5t-10.5 -60.5zM413 564l-241 65l27 97l241 -65z" />
    <glyph glyph-name="oacute" unicode="&#xf3;" 
d="M41 250q0 55 19 101.5t53.5 81t81 54t102.5 19.5q55 0 102 -19.5t81.5 -54t53.5 -81t19 -101.5t-19 -101.5t-53.5 -81t-81.5 -54t-102 -19.5q-56 0 -102.5 19.5t-81 54t-53.5 81t-19 101.5zM153 250q0 -33 10.5 -60.5t29.5 -47.5t45.5 -31t58.5 -11t58.5 11t45.5 31
t29.5 47.5t10.5 60.5t-10.5 60.5t-29.5 47.5t-45.5 31t-58.5 11t-58.5 -11t-45.5 -31t-29.5 -47.5t-10.5 -60.5zM148 661l241 65l27 -97l-241 -65z" />
    <glyph glyph-name="ocircumflex" unicode="&#xf4;" 
d="M41 250q0 55 19 101.5t53.5 81t81 54t102.5 19.5q55 0 102 -19.5t81.5 -54t53.5 -81t19 -101.5t-19 -101.5t-53.5 -81t-81.5 -54t-102 -19.5q-56 0 -102.5 19.5t-81 54t-53.5 81t-19 101.5zM153 250q0 -33 10.5 -60.5t29.5 -47.5t45.5 -31t58.5 -11t58.5 11t45.5 31
t29.5 47.5t10.5 60.5t-10.5 60.5t-29.5 47.5t-45.5 31t-58.5 11t-58.5 -11t-45.5 -31t-29.5 -47.5t-10.5 -60.5zM114 602l183 183l183 -183l-66 -67l-117 117l-117 -117z" />
    <glyph glyph-name="otilde" unicode="&#xf5;" 
d="M41 250q0 55 19 101.5t53.5 81t81 54t102.5 19.5q55 0 102 -19.5t81.5 -54t53.5 -81t19 -101.5t-19 -101.5t-53.5 -81t-81.5 -54t-102 -19.5q-56 0 -102.5 19.5t-81 54t-53.5 81t-19 101.5zM153 250q0 -33 10.5 -60.5t29.5 -47.5t45.5 -31t58.5 -11t58.5 11t45.5 31
t29.5 47.5t10.5 60.5t-10.5 60.5t-29.5 47.5t-45.5 31t-58.5 11t-58.5 -11t-45.5 -31t-29.5 -47.5t-10.5 -60.5zM481 676q-8 -52 -40.5 -81.5t-88.5 -29.5q-21 0 -37.5 5.5t-30.5 12t-26 12t-24 5.5q-29 0 -37 -26h-100q8 52 40.5 81.5t88.5 29.5q21 0 37.5 -5.5t30.5 -12
t26 -12t24 -5.5q29 0 37 26h100z" />
    <glyph glyph-name="odieresis" unicode="&#xf6;" 
d="M41 250q0 55 19 101.5t53.5 81t81 54t102.5 19.5q55 0 102 -19.5t81.5 -54t53.5 -81t19 -101.5t-19 -101.5t-53.5 -81t-81.5 -54t-102 -19.5q-56 0 -102.5 19.5t-81 54t-53.5 81t-19 101.5zM153 250q0 -33 10.5 -60.5t29.5 -47.5t45.5 -31t58.5 -11t58.5 11t45.5 31
t29.5 47.5t10.5 60.5t-10.5 60.5t-29.5 47.5t-45.5 31t-58.5 11t-58.5 -11t-45.5 -31t-29.5 -47.5t-10.5 -60.5zM108 651q0 32 21.5 53.5t52.5 21.5t52.5 -21.5t21.5 -53.5t-21.5 -53.5t-52.5 -21.5t-52.5 21.5t-21.5 53.5zM339 651q0 32 21.5 53.5t52.5 21.5t52.5 -21.5
t21.5 -53.5t-21.5 -53.5t-52.5 -21.5t-52.5 21.5t-21.5 53.5z" />
    <glyph glyph-name="divide" unicode="&#xf7;" horiz-adv-x="573" 
d="M211 515q0 31 21.5 53t52.5 22t52.5 -22t21.5 -53t-21.5 -53t-52.5 -22t-52.5 22t-21.5 53zM513 300h-456v100h456v-100zM211 185q0 31 21.5 53t52.5 22t52.5 -22t21.5 -53t-21.5 -53t-52.5 -22t-52.5 22t-21.5 53z" />
    <glyph glyph-name="oslash" unicode="&#xf8;" 
d="M41 250q0 55 19 101.5t53.5 81t81 54t102.5 19.5q25 0 53 -5l18 44l91 -39l-17 -41q51 -34 81 -90t30 -125q0 -55 -19 -101.5t-53.5 -81t-81.5 -54t-102 -19.5q-25 0 -53 5l-18 -44l-91 39l17 41q-51 34 -81 90t-30 125zM441 250q0 70 -43 111l-111 -261h10q32 0 58.5 11
t45.5 31t29.5 47.5t10.5 60.5zM153 250q0 -70 43 -111l111 261h-10q-32 0 -58.5 -11t-45.5 -31t-29.5 -47.5t-10.5 -60.5z" />
    <glyph glyph-name="ugrave" unicode="&#xf9;" horiz-adv-x="584" 
d="M507 0h-110v57q-17 -23 -51 -43t-86 -20q-94 0 -143 53t-49 153v300h110v-276q0 -66 27.5 -96t81.5 -30t82 35t28 91v276h110v-500zM396 564l-241 65l27 97l241 -65z" />
    <glyph glyph-name="uacute" unicode="&#xfa;" horiz-adv-x="584" 
d="M507 0h-110v57q-17 -23 -51 -43t-86 -20q-94 0 -143 53t-49 153v300h110v-276q0 -66 27.5 -96t81.5 -30t82 35t28 91v276h110v-500zM150 661l241 65l27 -97l-241 -65z" />
    <glyph glyph-name="ucircumflex" unicode="&#xfb;" horiz-adv-x="584" 
d="M507 0h-110v57q-17 -23 -51 -43t-86 -20q-94 0 -143 53t-49 153v300h110v-276q0 -66 27.5 -96t81.5 -30t82 35t28 91v276h110v-500zM103 607l183 183l183 -183l-66 -67l-117 117l-117 -117z" />
    <glyph glyph-name="udieresis" unicode="&#xfc;" horiz-adv-x="584" 
d="M507 0h-110v57q-17 -23 -51 -43t-86 -20q-94 0 -143 53t-49 153v300h110v-276q0 -66 27.5 -96t81.5 -30t82 35t28 91v276h110v-500zM96 651q0 32 21.5 53.5t52.5 21.5t52.5 -21.5t21.5 -53.5t-21.5 -53.5t-52.5 -21.5t-52.5 21.5t-21.5 53.5zM327 651q0 32 21.5 53.5
t52.5 21.5t52.5 -21.5t21.5 -53.5t-21.5 -53.5t-52.5 -21.5t-52.5 21.5t-21.5 53.5z" />
    <glyph glyph-name="yacute" unicode="&#xfd;" horiz-adv-x="489" 
d="M120 500l124 -291l124 291h114l-183 -412v-338l-110 -12v350l-183 412h114zM106 662l241 65l27 -97l-241 -65z" />
    <glyph glyph-name="thorn" unicode="&#xfe;" horiz-adv-x="614" 
d="M77 -262v962l112 12v-264q20 24 58 41t85 17q54 0 99.5 -19t79.5 -53t53 -81t19 -103t-19 -103t-53 -81t-79.5 -53t-99.5 -19q-50 0 -86.5 17.5t-56.5 40.5v-302zM185 250q0 -30 11 -57.5t30 -48t45.5 -32.5t56.5 -12q31 0 58 12t46.5 32.5t31 48t11.5 57.5t-11.5 57.5
t-31 48t-46.5 32.5t-58 12q-30 0 -56.5 -12t-45.5 -32.5t-30 -48t-11 -57.5z" />
    <glyph glyph-name="ydieresis" unicode="&#xff;" horiz-adv-x="489" 
d="M120 500l124 -291l124 291h114l-183 -412v-338l-110 -12v350l-183 412h114zM55 651q0 32 21.5 53.5t52.5 21.5t52.5 -21.5t21.5 -53.5t-21.5 -53.5t-52.5 -21.5t-52.5 21.5t-21.5 53.5zM286 651q0 32 21.5 53.5t52.5 21.5t52.5 -21.5t21.5 -53.5t-21.5 -53.5t-52.5 -21.5
t-52.5 21.5t-21.5 53.5z" />
    <glyph glyph-name="dotlessi" unicode="&#x131;" horiz-adv-x="265" 
d="M187 500v-500h-110v500h110z" />
    <glyph glyph-name="Lslash" unicode="&#x141;" horiz-adv-x="578" 
d="M0 312l118 42v346h112v-305l91 33l35 -100l-126 -46v-176h333v-106h-445v242l-83 -30z" />
    <glyph glyph-name="lslash" unicode="&#x142;" horiz-adv-x="387" 
d="M243 712v-318l93 34l35 -100l-128 -47v-281h-110v242l-83 -30l-35 100l118 42v346z" />
    <glyph glyph-name="OE" unicode="&#x152;" horiz-adv-x="1123" 
d="M626 85q-46 -43 -105.5 -67t-128.5 -24q-74 0 -137.5 28t-110 76t-72.5 113t-26 139t26 139t72.5 113t110 76t137.5 28q69 0 128.5 -24.5t105.5 -66.5v85h439v-106h-327v-188h159v-106h-159v-194h333v-106h-445v85zM624 350q0 52 -17 98t-48 79.5t-73.5 53t-93.5 19.5
t-93.5 -19.5t-73.5 -53t-48 -79.5t-17 -98q0 -53 17 -98.5t48 -79t73.5 -53t93.5 -19.5t93.5 19.5t73.5 53t48 79t17 98.5z" />
    <glyph glyph-name="oe" unicode="&#x153;" horiz-adv-x="991" 
d="M41 250q0 55 19 101.5t53.5 81t81 54t102.5 19.5q63 0 114 -25t86 -68q35 43 86 68t114 25q45 0 83.5 -13t70 -36.5t54 -55.5t35.5 -70l-338 -195q19 -17 43 -27.5t52 -10.5q63 0 98.5 34.5t44.5 93.5h112q-5 -53 -27 -95.5t-55.5 -73t-78 -47t-94.5 -16.5q-63 0 -114 25
t-86 67q-35 -43 -86 -67.5t-114 -24.5q-56 0 -102.5 19.5t-81 54t-53.5 81t-19 101.5zM441 250q0 33 -10.5 60.5t-29.5 47.5t-45.5 31t-58.5 11t-58.5 -11t-45.5 -31t-29.5 -47.5t-10.5 -60.5t10.5 -60.5t29.5 -47.5t45.5 -31t58.5 -11t58.5 11t45.5 31t29.5 47.5t10.5 60.5
zM553 250q0 -12 0.5 -17t1.5 -8l238 137q-18 20 -43 30t-53 10q-32 0 -58.5 -11.5t-45.5 -32t-29.5 -48t-10.5 -60.5z" />
    <glyph glyph-name="Scaron" unicode="&#x160;" horiz-adv-x="538" 
d="M188 526q0 -24 12 -39t33 -25.5t50 -19.5t64 -22q65 -25 104 -71.5t39 -126.5q0 -49 -17.5 -90.5t-48 -72t-71.5 -48t-88 -17.5q-48 0 -89 17.5t-71.5 48.5t-47.5 71.5t-17 87.5h112q0 -24 7.5 -46t22 -38t35.5 -25.5t48 -9.5q54 0 83.5 33t29.5 86q0 39 -16 61
t-42.5 35.5t-60.5 23t-71 23.5q-48 19 -79 59.5t-31 98.5q0 41 14 75t39 59t58.5 38.5t72.5 13.5q57 0 98.5 -23t67.5 -67l-75 -75q-13 29 -37 44t-51 15q-35 0 -56 -21t-21 -53zM449 923l-183 -183l-183 183l66 67l117 -117l117 117z" />
    <glyph glyph-name="scaron" unicode="&#x161;" horiz-adv-x="421" 
d="M143 165q0 -32 20.5 -49.5t45.5 -17.5q29 0 46.5 16t17.5 46q0 21 -8.5 33t-22 19.5t-31.5 12t-36 9.5q-19 5 -37.5 15.5t-33.5 26.5t-24 39t-9 53t11 55.5t29.5 43.5t43.5 28.5t54 10.5q39 0 68.5 -16.5t50.5 -47.5l-68 -67q-6 15 -17.5 24t-26.5 9q-20 0 -30 -12.5
t-10 -27.5q0 -17 9.5 -26t25 -14.5t35.5 -10.5t40 -12q19 -7 36.5 -18.5t31 -28.5t21.5 -40.5t8 -55.5q0 -38 -13 -68.5t-36 -53t-55 -34.5t-70 -12q-39 0 -70.5 13.5t-54 36.5t-34.5 54t-12 67h105zM393 723l-183 -183l-183 183l66 67l117 -117l117 117z" />
    <glyph glyph-name="Ydieresis" unicode="&#x178;" horiz-adv-x="504" 
d="M123 700l129 -286l129 286h118l-191 -400v-300h-112v300l-191 400h118zM63 845q0 32 21.5 53.5t52.5 21.5t52.5 -21.5t21.5 -53.5t-21.5 -53.5t-52.5 -21.5t-52.5 21.5t-21.5 53.5zM294 845q0 32 21.5 53.5t52.5 21.5t52.5 -21.5t21.5 -53.5t-21.5 -53.5t-52.5 -21.5
t-52.5 21.5t-21.5 53.5z" />
    <glyph glyph-name="Zcaron" unicode="&#x17d;" horiz-adv-x="623" 
d="M126 400h130l141 194h-323v106h461v-94l-149 -206h54v-100h-127l-140 -194h407v-106h-545v94l149 206h-58v100zM497 923l-183 -183l-183 183l66 67l117 -117l117 117z" />
    <glyph glyph-name="zcaron" unicode="&#x17e;" horiz-adv-x="537" 
d="M58 500h419v-94l-290 -302h308v-104h-455v94l290 302h-272v104zM455 723l-183 -183l-183 183l66 67l117 -117l117 117z" />
    <glyph glyph-name="florin" unicode="&#x192;" horiz-adv-x="479" 
d="M148 522q0 40 13.5 74t38.5 58.5t59.5 38t75.5 13.5q64 0 104 -30t63 -74l-76 -68q-14 28 -35.5 48t-55.5 20q-36 0 -56.5 -23.5t-20.5 -56.5v-118h158v-104h-158v-386q0 -80 -45 -122t-117 -42h-45v104h45q21 0 36.5 17.5t15.5 46.5v382h-97v104h97v118z" />
    <glyph glyph-name="circumflex" unicode="&#x2c6;" horiz-adv-x="416" 
d="M25 602l183 183l183 -183l-66 -67l-117 117l-117 -117z" />
    <glyph glyph-name="caron" unicode="&#x2c7;" horiz-adv-x="416" 
d="M391 718l-183 -183l-183 183l66 67l117 -117l117 117z" />
    <glyph glyph-name="breve" unicode="&#x2d8;" horiz-adv-x="440" 
d="M220 550q-35 0 -66.5 12.5t-56 34.5t-40 51.5t-19.5 63.5h103q5 -29 24.5 -49t54.5 -20t54.5 20t24.5 49h103q-4 -34 -19.5 -63.5t-40 -51.5t-56 -34.5t-66.5 -12.5z" />
    <glyph glyph-name="dotaccent" unicode="&#x2d9;" horiz-adv-x="264" 
d="M58 631q0 32 21.5 53.5t52.5 21.5t52.5 -21.5t21.5 -53.5t-21.5 -53.5t-52.5 -21.5t-52.5 21.5t-21.5 53.5z" />
    <glyph glyph-name="ring" unicode="&#x2da;" horiz-adv-x="300" 
d="M50 650q0 21 7.5 39t21 31.5t32 21.5t39.5 8t39.5 -8t32 -21.5t21 -31.5t7.5 -39t-7.5 -39t-21 -31.5t-32 -21.5t-39.5 -8t-39.5 8t-32 21.5t-21 31.5t-7.5 39zM122 650q0 -12 8 -20t20 -8t20 8t8 20t-8 20t-20 8t-20 -8t-8 -20z" />
    <glyph glyph-name="ogonek" unicode="&#x2db;" horiz-adv-x="260" 
d="M251 -143q0 -24 -9 -45t-24.5 -36t-36 -23.5t-43.5 -8.5q-26 0 -46.5 8.5t-35.5 23.5t-23 35.5t-8 43.5q0 14 2.5 24.5t6.5 19.5l42 101h88l-42 -100l-10.5 -24t-3.5 -19q0 -12 8 -21.5t22 -9.5t22.5 9t8.5 22h82z" />
    <glyph glyph-name="tilde" unicode="&#x2dc;" horiz-adv-x="448" 
d="M425 676q-8 -52 -40.5 -81.5t-88.5 -29.5q-21 0 -37.5 5.5t-30.5 12t-26 12t-24 5.5q-29 0 -37 -26h-100q8 52 40.5 81.5t88.5 29.5q21 0 37.5 -5.5t30.5 -12t26 -12t24 -5.5q29 0 37 26h100z" />
    <glyph glyph-name="hungarumlaut" unicode="&#x2dd;" horiz-adv-x="553" 
d="M41 625l197 152l63 -80l-197 -152zM268 625l197 152l63 -80l-197 -152z" />
    <glyph glyph-name="uni03A9" unicode="&#x3a9;" horiz-adv-x="784" 
d="M738 0h-292v104q39 10 72 33.5t57 56t37.5 72.5t13.5 84q0 54 -17 100t-48 79t-74 52t-95 19t-95 -19t-74 -52t-48 -79t-17 -100q0 -44 13.5 -84t37.5 -72.5t57 -56t72 -33.5v-104h-292v106h110q-48 48 -79 111t-31 133q0 76 25 141t70.5 113t109 75t141.5 27t141.5 -27
t109 -75t70.5 -113t25 -141q0 -70 -31 -133t-79 -111h110v-106z" />
    <glyph glyph-name="pi" unicode="&#x3c0;" horiz-adv-x="614" 
d="M341 396h-70v-396h-110v396h-104v104h496v-104h-102v-244q0 -24 14.5 -39t39.5 -15v-104q-85 0 -124.5 42.5t-39.5 120.5v239z" />
    <glyph glyph-name="endash" unicode="&#x2013;" horiz-adv-x="578" 
d="M57 380h461v-100h-461v100z" />
    <glyph glyph-name="emdash" unicode="&#x2014;" horiz-adv-x="809" 
d="M57 380h692v-100h-692v100z" />
    <glyph glyph-name="quoteleft" unicode="&#x2018;" horiz-adv-x="284" 
d="M170 434l-154 266h120l126 -213z" />
    <glyph glyph-name="quoteright" unicode="&#x2019;" horiz-adv-x="284" 
d="M22 487l126 213h120l-154 -266z" />
    <glyph glyph-name="quotesinglbase" unicode="&#x201a;" horiz-adv-x="284" 
d="M268 213l-126 -213h-120l154 266z" />
    <glyph glyph-name="quotedblleft" unicode="&#x201c;" horiz-adv-x="458" 
d="M170 434l-154 266h120l126 -213zM344 434l-154 266h120l126 -213z" />
    <glyph glyph-name="quotedblright" unicode="&#x201d;" horiz-adv-x="458" 
d="M196 487l126 213h120l-154 -266zM22 487l126 213h120l-154 -266z" />
    <glyph glyph-name="quotedblbase" unicode="&#x201e;" horiz-adv-x="458" 
d="M268 213l-126 -213h-120l154 266zM442 213l-126 -213h-120l154 266z" />
    <glyph glyph-name="dagger" unicode="&#x2020;" horiz-adv-x="528" 
d="M208 700l112 12v-212h159v-106h-159v-644l-112 -12v656h-159v106h159v200z" />
    <glyph glyph-name="daggerdbl" unicode="&#x2021;" horiz-adv-x="528" 
d="M49 300h159v94h-159v106h159v200l112 12v-212h159v-106h-159v-94h159v-106h-159v-444l-112 -12v456h-159v106z" />
    <glyph glyph-name="bullet" unicode="&#x2022;" horiz-adv-x="248" 
d="M50 350q0 32 21.5 53.5t52.5 21.5t52.5 -21.5t21.5 -53.5t-21.5 -53.5t-52.5 -21.5t-52.5 21.5t-21.5 53.5z" />
    <glyph glyph-name="ellipsis" unicode="&#x2026;" horiz-adv-x="712" 
d="M72 69q0 32 21.5 53.5t52.5 21.5t52.5 -21.5t21.5 -53.5t-21.5 -53.5t-52.5 -21.5t-52.5 21.5t-21.5 53.5zM282 69q0 32 21.5 53.5t52.5 21.5t52.5 -21.5t21.5 -53.5t-21.5 -53.5t-52.5 -21.5t-52.5 21.5t-21.5 53.5zM492 69q0 32 21.5 53.5t52.5 21.5t52.5 -21.5
t21.5 -53.5t-21.5 -53.5t-52.5 -21.5t-52.5 21.5t-21.5 53.5z" />
    <glyph glyph-name="perthousand" unicode="&#x2030;" horiz-adv-x="1354" 
d="M613 800l91 -39l-365 -861l-91 39zM48 525q0 39 13.5 72t37.5 57.5t57 38t73 13.5t73 -13.5t57 -38t37.5 -57.5t13.5 -72t-13.5 -72t-37.5 -57.5t-57 -38t-73 -13.5t-73 13.5t-57 38t-37.5 57.5t-13.5 72zM148 525q0 -38 23 -60.5t58 -22.5t58 22.5t23 60.5t-23 60.5
t-58 22.5t-58 -22.5t-23 -60.5zM542 175q0 39 13.5 72t37.5 57.5t57 38t73 13.5t73 -13.5t57 -38t37.5 -57.5t13.5 -72t-13.5 -72t-37.5 -57.5t-57 -38t-73 -13.5t-73 13.5t-57 38t-37.5 57.5t-13.5 72zM642 175q0 -38 23 -60.5t58 -22.5t58 22.5t23 60.5t-23 60.5t-58 22.5
t-58 -22.5t-23 -60.5zM944 175q0 39 13.5 72t37.5 57.5t57 38t73 13.5t73 -13.5t57 -38t37.5 -57.5t13.5 -72t-13.5 -72t-37.5 -57.5t-57 -38t-73 -13.5t-73 13.5t-57 38t-37.5 57.5t-13.5 72zM1044 175q0 -38 23 -60.5t58 -22.5t58 22.5t23 60.5t-23 60.5t-58 22.5
t-58 -22.5t-23 -60.5z" />
    <glyph glyph-name="guilsinglleft" unicode="&#x2039;" horiz-adv-x="390" 
d="M288 50l-249 250l249 250l71 -70l-180 -180l180 -180z" />
    <glyph glyph-name="guilsinglright" unicode="&#x203a;" horiz-adv-x="390" 
d="M102 550l249 -250l-249 -250l-71 70l180 180l-180 180z" />
    <glyph glyph-name="fraction" unicode="&#x2044;" horiz-adv-x="774" 
d="M695 706l48 -48l-664 -664l-48 48z" />
    <glyph glyph-name="Euro" unicode="&#x20ac;" horiz-adv-x="833" 
d="M25 300h91q-2 10 -2 19.5t-1 20.5h-88v100h99q15 57 44.5 105.5t72.5 84t98 56t120 20.5q88 0 154 -34.5t112 -93.5l-79 -78q-31 42 -78 71t-109 29q-40 0 -74.5 -12t-62.5 -33.5t-48.5 -51t-32.5 -63.5h230v-100h-244q0 -21 3 -40h241v-100h-199q30 -47 75 -73.5
t112 -26.5q87 0 149.5 52.5t79.5 147.5h112q-8 -68 -37.5 -124t-75 -96.5t-104 -63t-124.5 -22.5q-57 0 -106 15t-88.5 42.5t-69.5 65.5t-50 83h-120v100z" />
    <glyph glyph-name="trademark" unicode="&#x2122;" horiz-adv-x="696" 
d="M21 700h212v-67h-72v-233h-68v233h-72v67zM269 700h79l98 -207l98 207h79v-300h-68v175l-83 -175h-52l-83 175v-175h-68v300z" />
    <glyph glyph-name="Omega" unicode="&#x2126;" horiz-adv-x="784" 
d="M738 0h-292v104q39 10 72 33.5t57 56t37.5 72.5t13.5 84q0 54 -17 100t-48 79t-74 52t-95 19t-95 -19t-74 -52t-48 -79t-17 -100q0 -44 13.5 -84t37.5 -72.5t57 -56t72 -33.5v-104h-292v106h110q-48 48 -79 111t-31 133q0 76 25 141t70.5 113t109 75t141.5 27t141.5 -27
t109 -75t70.5 -113t25 -141q0 -70 -31 -133t-79 -111h110v-106z" />
    <glyph glyph-name="partialdiff" unicode="&#x2202;" 
d="M41 250q0 53 19.5 100t54 81.5t80 54.5t98.5 20q11 0 24 -1t22 -3l-129 248h112q44 -81 81 -151q16 -30 31.5 -59.5t29 -55t24 -45.5t15.5 -29q7 -15 16 -33t16.5 -38.5t12.5 -43t5 -45.5q0 -56 -20 -102.5t-54.5 -81t-81.5 -53.5t-100 -19t-100 19t-81.5 53.5t-54.5 81
t-20 102.5zM151 250q0 -68 40.5 -110t105.5 -42t105.5 42t40.5 110t-40.5 110t-105.5 42t-105.5 -42t-40.5 -110z" />
    <glyph glyph-name="Delta" unicode="&#x2206;" horiz-adv-x="816" 
d="M408 712l400 -712h-800zM408 495l-218 -389h436z" />
    <glyph glyph-name="product" unicode="&#x220f;" horiz-adv-x="623" 
d="M539 700v-700h-112v594h-231v-594h-112v700h455z" />
    <glyph glyph-name="summation" unicode="&#x2211;" horiz-adv-x="656" 
d="M49 700h555v-106h-400l283 -244l-283 -244h400v-106h-555v116l278 234l-278 234v116z" />
    <glyph glyph-name="minus" unicode="&#x2212;" horiz-adv-x="460" 
d="M57 380h343v-100h-343v100z" />
    <glyph glyph-name="radical" unicode="&#x221a;" horiz-adv-x="656" 
d="M32 400h180l94 -252l234 652h108l-295 -800h-96l-112 300h-114z" />
    <glyph glyph-name="infinity" unicode="&#x221e;" horiz-adv-x="518" 
d="M50 350q0 27 9.5 49.5t26 39.5t39 26.5t48.5 9.5t49 -9.5t37 -29.5q14 20 37 29.5t49 9.5t48.5 -9.5t39 -26.5t26 -39.5t9.5 -49.5t-9.5 -49.5t-26 -39.5t-39 -26.5t-48.5 -9.5t-49 9.5t-37 29.5q-14 -20 -37 -29.5t-49 -9.5t-48.5 9.5t-39 26.5t-26 39.5t-9.5 49.5z
M132 350q0 -18 12.5 -30.5t30.5 -12.5t30 12.5t12 30.5t-12 30.5t-30 12.5t-30.5 -12.5t-12.5 -30.5zM301 350q0 -18 12 -30.5t30 -12.5t30.5 12.5t12.5 30.5t-12.5 30.5t-30.5 12.5t-30 -12.5t-12 -30.5z" />
    <glyph glyph-name="integral" unicode="&#x222b;" horiz-adv-x="541" 
d="M492 594q-28 0 -45.5 -13.5t-28.5 -37.5l-292 -689q-23 -56 -61.5 -80t-89.5 -24h-46v106h42q25 0 39.5 10.5t23.5 30.5l291 682q23 54 63.5 87.5t100.5 33.5h55v-106h-52z" />
    <glyph glyph-name="approxequal" unicode="&#x2248;" horiz-adv-x="555" 
d="M505 306q0 -53 -32.5 -82.5t-87.5 -29.5q-17 0 -46 4.5t-60 9.5t-58 9.5t-40 4.5q-12 0 -20 -5.5t-8 -16.5h-103q0 53 32.5 82.5t87.5 29.5q17 0 46 -4.5t60 -9.5t58 -9.5t40 -4.5q12 0 20 5.5t8 16.5h103zM505 460q0 -53 -32.5 -82.5t-87.5 -29.5q-17 0 -46 4.5t-60 9.5
t-58 9.5t-40 4.5q-12 0 -20 -5.5t-8 -16.5h-103q0 53 32.5 82.5t87.5 29.5q17 0 46 -4.5t60 -9.5t58 -9.5t40 -4.5q12 0 20 5.5t8 16.5h103z" />
    <glyph glyph-name="notequal" unicode="&#x2260;" horiz-adv-x="572" 
d="M57 460h229l59 139l91 -39l-42 -100h118v-100h-161l-25 -60h186v-100h-229l-59 -139l-91 39l42 100h-118v100h161l25 60h-186v100z" />
    <glyph glyph-name="lessequal" unicode="&#x2264;" horiz-adv-x="572" 
d="M335 122l-226 227l226 227l71 -70l-158 -157l158 -157zM57 100h455v-100h-455v100z" />
    <glyph glyph-name="greaterequal" unicode="&#x2265;" horiz-adv-x="572" 
d="M166 192l158 157l-158 157l71 70l226 -227l-226 -227zM515 0h-455v100h455v-100z" />
    <glyph glyph-name="lozenge" unicode="&#x25ca;" horiz-adv-x="570" 
d="M285 706l227 -356l-227 -356l-227 356zM285 521l-109 -171l109 -171l109 171z" />
    <glyph glyph-name="apple" unicode="&#xf8ff;" horiz-adv-x="760" 
d="M676 22q0 -8 -6 -15t-16 -7q-3 0 -7 1l-267 77l-267 -77q-4 -1 -7 -1q-10 0 -16 7t-6 15v595q0 17 16 22l270 78q6 2 10 2t10 -2l270 -78q16 -5 16 -22v-595zM358 669l-230 -67q3 -47 22 -88t49.5 -72.5t71 -51.5t87.5 -24v303zM402 366q46 4 87 24t71.5 51.5t49.5 72.5
t22 88l-230 67v-303zM127 51l231 67v204q-74 6 -134.5 43.5t-96.5 97.5v-412zM633 463q-37 -60 -97 -97.5t-134 -43.5v-204l231 -67v412z" />
    <glyph glyph-name="a.ss01" horiz-adv-x="484" 
d="M41 166q0 39 13.5 71.5t37.5 55.5t56 36t70 13q33 0 53.5 -9t34.5 -23v26q0 66 -67 66q-23 0 -39.5 -13t-27.5 -30l-71 71q23 35 60 55.5t83 20.5q84 0 128 -46.5t44 -128.5v-331h-110v31q-31 -37 -92 -37q-36 0 -67.5 12t-55 34.5t-37 54.5t-13.5 71zM151 169
q0 -35 23 -55t57 -20t57 20t23 55t-23 55t-57 20t-57 -20t-23 -55z" />
    <glyph glyph-name="agrave.ss01" horiz-adv-x="484" 
d="M41 166q0 39 13.5 71.5t37.5 55.5t56 36t70 13q33 0 53.5 -9t34.5 -23v26q0 66 -67 66q-23 0 -39.5 -13t-27.5 -30l-71 71q23 35 60 55.5t83 20.5q84 0 128 -46.5t44 -128.5v-331h-110v31q-31 -37 -92 -37q-36 0 -67.5 12t-55 34.5t-37 54.5t-13.5 71zM151 169
q0 -35 23 -55t57 -20t57 20t23 55t-23 55t-57 20t-57 -20t-23 -55zM361 564l-241 65l27 97l241 -65z" />
    <glyph glyph-name="aacute.ss01" horiz-adv-x="484" 
d="M111 661l241 65l27 -97l-241 -65zM41 166q0 39 13.5 71.5t37.5 55.5t56 36t70 13q33 0 53.5 -9t34.5 -23v26q0 66 -67 66q-23 0 -39.5 -13t-27.5 -30l-71 71q23 35 60 55.5t83 20.5q84 0 128 -46.5t44 -128.5v-331h-110v31q-31 -37 -92 -37q-36 0 -67.5 12t-55 34.5
t-37 54.5t-13.5 71zM151 169q0 -35 23 -55t57 -20t57 20t23 55t-23 55t-57 20t-57 -20t-23 -55z" />
    <glyph glyph-name="acircumflex.ss01" horiz-adv-x="484" 
d="M41 166q0 39 13.5 71.5t37.5 55.5t56 36t70 13q33 0 53.5 -9t34.5 -23v26q0 66 -67 66q-23 0 -39.5 -13t-27.5 -30l-71 71q23 35 60 55.5t83 20.5q84 0 128 -46.5t44 -128.5v-331h-110v31q-31 -37 -92 -37q-36 0 -67.5 12t-55 34.5t-37 54.5t-13.5 71zM151 169
q0 -35 23 -55t57 -20t57 20t23 55t-23 55t-57 20t-57 -20t-23 -55zM57 602l183 183l183 -183l-66 -67l-117 117l-117 -117z" />
    <glyph glyph-name="atilde.ss01" horiz-adv-x="484" 
d="M41 166q0 39 13.5 71.5t37.5 55.5t56 36t70 13q33 0 53.5 -9t34.5 -23v26q0 66 -67 66q-23 0 -39.5 -13t-27.5 -30l-71 71q23 35 60 55.5t83 20.5q84 0 128 -46.5t44 -128.5v-331h-110v31q-31 -37 -92 -37q-36 0 -67.5 12t-55 34.5t-37 54.5t-13.5 71zM151 169
q0 -35 23 -55t57 -20t57 20t23 55t-23 55t-57 20t-57 -20t-23 -55zM426 676q-8 -52 -40.5 -81.5t-88.5 -29.5q-21 0 -37.5 5.5t-30.5 12t-26 12t-24 5.5q-29 0 -37 -26h-100q8 52 40.5 81.5t88.5 29.5q21 0 37.5 -5.5t30.5 -12t26 -12t24 -5.5q29 0 37 26h100z" />
    <glyph glyph-name="adieresis.ss01" horiz-adv-x="484" 
d="M57 651q0 32 21.5 53.5t52.5 21.5t52.5 -21.5t21.5 -53.5t-21.5 -53.5t-52.5 -21.5t-52.5 21.5t-21.5 53.5zM288 651q0 32 21.5 53.5t52.5 21.5t52.5 -21.5t21.5 -53.5t-21.5 -53.5t-52.5 -21.5t-52.5 21.5t-21.5 53.5zM41 166q0 39 13.5 71.5t37.5 55.5t56 36t70 13
q33 0 53.5 -9t34.5 -23v26q0 66 -67 66q-23 0 -39.5 -13t-27.5 -30l-71 71q23 35 60 55.5t83 20.5q84 0 128 -46.5t44 -128.5v-331h-110v31q-31 -37 -92 -37q-36 0 -67.5 12t-55 34.5t-37 54.5t-13.5 71zM151 169q0 -35 23 -55t57 -20t57 20t23 55t-23 55t-57 20t-57 -20
t-23 -55z" />
    <glyph glyph-name="aring.ss01" horiz-adv-x="484" 
d="M142 650q0 21 7.5 39t21 31.5t32 21.5t39.5 8t39.5 -8t32 -21.5t21 -31.5t7.5 -39t-7.5 -39t-21 -31.5t-32 -21.5t-39.5 -8t-39.5 8t-32 21.5t-21 31.5t-7.5 39zM214 650q0 -12 8 -20t20 -8t20 8t8 20t-8 20t-20 8t-20 -8t-8 -20zM41 166q0 39 13.5 71.5t37.5 55.5t56 36
t70 13q33 0 53.5 -9t34.5 -23v26q0 66 -67 66q-23 0 -39.5 -13t-27.5 -30l-71 71q23 35 60 55.5t83 20.5q84 0 128 -46.5t44 -128.5v-331h-110v31q-31 -37 -92 -37q-36 0 -67.5 12t-55 34.5t-37 54.5t-13.5 71zM151 169q0 -35 23 -55t57 -20t57 20t23 55t-23 55t-57 20
t-57 -20t-23 -55z" />
    <glyph glyph-name="g.ss01" horiz-adv-x="536" 
d="M56 303q0 42 15 79t41.5 64.5t63.5 43.5t81 16q29 0 55.5 -7t46.5 -22v23h110v-197q0 -44 -17 -81.5t-50 -64.5q45 -32 70 -79t25 -103q0 -53 -18 -95.5t-49.5 -72.5t-74.5 -46.5t-92 -16.5q-46 0 -88 16.5t-74 46.5t-51 72.5t-19 95.5q0 57 23 104t69 78
q-32 28 -49.5 65t-17.5 81zM263 101q-51 0 -84.5 -34.5t-33.5 -91.5t33.5 -92t84.5 -35q56 0 89 35t33 92t-33 91.5t-89 34.5zM166 303q0 -45 27.5 -71.5t69.5 -26.5t69 26.5t27 71.5t-27 72t-69 27t-69.5 -27t-27.5 -72z" />
    <glyph glyph-name="e.ss01" 
d="M41 250q0 53 19 100t53.5 81.5t81 54.5t102.5 20q45 0 83.5 -13t70 -36.5t54 -55.5t35.5 -70l-338 -195q19 -17 43 -27.5t52 -10.5q63 0 98.5 34.5t44.5 93.5h112q-5 -53 -27 -95.5t-55.5 -73t-78 -47t-94.5 -16.5q-56 0 -102.5 20t-81 54.5t-53.5 81.5t-19 100zM153 250
v-13t2 -12l238 137q-18 20 -43 30t-53 10q-33 0 -59.5 -12t-45.5 -33t-29 -48.5t-10 -58.5z" />
    <glyph glyph-name="egrave.ss01" 
d="M41 250q0 53 19 100t53.5 81.5t81 54.5t102.5 20q45 0 83.5 -13t70 -36.5t54 -55.5t35.5 -70l-338 -195q19 -17 43 -27.5t52 -10.5q63 0 98.5 34.5t44.5 93.5h112q-5 -53 -27 -95.5t-55.5 -73t-78 -47t-94.5 -16.5q-56 0 -102.5 20t-81 54.5t-53.5 81.5t-19 100zM153 250
v-13t2 -12l238 137q-18 20 -43 30t-53 10q-33 0 -59.5 -12t-45.5 -33t-29 -48.5t-10 -58.5zM399 564l-241 65l27 97l241 -65z" />
    <glyph glyph-name="eacute.ss01" 
d="M41 250q0 53 19 100t53.5 81.5t81 54.5t102.5 20q45 0 83.5 -13t70 -36.5t54 -55.5t35.5 -70l-338 -195q19 -17 43 -27.5t52 -10.5q63 0 98.5 34.5t44.5 93.5h112q-5 -53 -27 -95.5t-55.5 -73t-78 -47t-94.5 -16.5q-56 0 -102.5 20t-81 54.5t-53.5 81.5t-19 100zM153 250
v-13t2 -12l238 137q-18 20 -43 30t-53 10q-33 0 -59.5 -12t-45.5 -33t-29 -48.5t-10 -58.5zM143 661l241 65l27 -97l-241 -65z" />
    <glyph glyph-name="ecircumflex.ss01" 
d="M41 250q0 53 19 100t53.5 81.5t81 54.5t102.5 20q45 0 83.5 -13t70 -36.5t54 -55.5t35.5 -70l-338 -195q19 -17 43 -27.5t52 -10.5q63 0 98.5 34.5t44.5 93.5h112q-5 -53 -27 -95.5t-55.5 -73t-78 -47t-94.5 -16.5q-56 0 -102.5 20t-81 54.5t-53.5 81.5t-19 100zM153 250
v-13t2 -12l238 137q-18 20 -43 30t-53 10q-33 0 -59.5 -12t-45.5 -33t-29 -48.5t-10 -58.5zM113 602l183 183l183 -183l-66 -67l-117 117l-117 -117z" />
    <glyph glyph-name="edieresis.ss01" 
d="M41 250q0 53 19 100t53.5 81.5t81 54.5t102.5 20q45 0 83.5 -13t70 -36.5t54 -55.5t35.5 -70l-338 -195q19 -17 43 -27.5t52 -10.5q63 0 98.5 34.5t44.5 93.5h112q-5 -53 -27 -95.5t-55.5 -73t-78 -47t-94.5 -16.5q-56 0 -102.5 20t-81 54.5t-53.5 81.5t-19 100zM153 250
v-13t2 -12l238 137q-18 20 -43 30t-53 10q-33 0 -59.5 -12t-45.5 -33t-29 -48.5t-10 -58.5zM109 651q0 32 21.5 53.5t52.5 21.5t52.5 -21.5t21.5 -53.5t-21.5 -53.5t-52.5 -21.5t-52.5 21.5t-21.5 53.5zM340 651q0 32 21.5 53.5t52.5 21.5t52.5 -21.5t21.5 -53.5
t-21.5 -53.5t-52.5 -21.5t-52.5 21.5t-21.5 53.5z" />
    <glyph glyph-name="k.ss01" horiz-adv-x="474" 
d="M452 331q0 -60 -31 -103.5t-83 -60.5l129 -167h-139l-141 182v-182h-110v700l110 12v-235q14 12 40 20.5t53 8.5q39 0 71 -13t54.5 -36.5t34.5 -55.5t12 -70zM343 331q0 33 -23 53t-56 20t-56 -20t-23 -53t23 -53t56 -20t56 20t23 53z" />
    </font>
</defs>
</svg>
